<?xml version="1.0" encoding="UTF-8" standalone="no"?>
<!DOCTYPE svg PUBLIC "-//W3C//DTD SVG 1.1//EN"
 "http://www.w3.org/Graphics/SVG/1.1/DTD/svg11.dtd">
<!-- Generated by graphviz version 2.50.0 (0)
 -->
<!-- Title: G Pages: 1 -->
<svg width="823pt" height="632pt"
 viewBox="0.00 0.00 822.78 631.61" xmlns="http://www.w3.org/2000/svg" xmlns:xlink="http://www.w3.org/1999/xlink">
<g id="graph0" class="graph" transform="scale(1 1) rotate(0) translate(4 627.61)">
<title>G</title>
<polygon fill="white" stroke="transparent" points="-4,4 -4,-627.61 818.78,-627.61 818.78,4 -4,4"/>
<!-- 0 -->
<g id="node1" class="node">
<title>0</title>
<ellipse fill="red" stroke="red" cx="119" cy="-294.81" rx="18" ry="18"/>
<ellipse fill="none" stroke="red" cx="119" cy="-294.81" rx="22" ry="22"/>
<text text-anchor="middle" x="119" y="-290.61" font-family="Times New Roman,serif" font-size="14.00">0</text>
</g>
<!-- 13 -->
<g id="node2" class="node">
<title>13</title>
<ellipse fill="none" stroke="black" cx="207.03" cy="-150.81" rx="20.89" ry="20.89"/>
<text text-anchor="middle" x="207.03" y="-146.61" font-family="Times New Roman,serif" font-size="14.00">13</text>
</g>
<!-- 0&#45;&#45;13 -->
<g id="edge1" class="edge">
<title>0&#45;&#45;13</title>
<path fill="none" stroke="black" d="M124.03,-273.26C129.15,-250.2 139.74,-213.37 159,-187.01 164.68,-179.24 172.48,-172.32 180.09,-166.66"/>
<polygon fill="black" stroke="black" points="182.58,-169.2 188.81,-160.63 178.6,-163.44 182.58,-169.2"/>
<text text-anchor="middle" x="163.67" y="-192.01" font-family="Times New Roman,serif" font-size="14.00">B</text>
</g>
<!-- 24 -->
<g id="node3" class="node">
<title>24</title>
<ellipse fill="none" stroke="black" cx="266.42" cy="-559.81" rx="20.89" ry="20.89"/>
<text text-anchor="middle" x="266.42" y="-555.61" font-family="Times New Roman,serif" font-size="14.00">24</text>
</g>
<!-- 0&#45;&#45;24 -->
<g id="edge2" class="edge">
<title>0&#45;&#45;24</title>
<path fill="none" stroke="black" d="M122.58,-316.91C129.5,-372.03 150.44,-513.11 186.34,-540.81 200.37,-551.64 219.65,-556.42 235.66,-558.47"/>
<polygon fill="black" stroke="black" points="235.32,-561.96 245.62,-559.47 236.02,-554.99 235.32,-561.96"/>
<text text-anchor="middle" x="163.67" y="-517.01" font-family="Times New Roman,serif" font-size="14.00">B</text>
</g>
<!-- 11 -->
<g id="node4" class="node">
<title>11</title>
<ellipse fill="none" stroke="black" cx="207.03" cy="-448.81" rx="20.89" ry="20.89"/>
<text text-anchor="middle" x="207.03" y="-444.61" font-family="Times New Roman,serif" font-size="14.00">11</text>
</g>
<!-- 0&#45;&#45;11 -->
<g id="edge19" class="edge">
<title>0&#45;&#45;11</title>
<path fill="none" stroke="black" d="M120.92,-316.81C123.24,-345.59 131.3,-396.1 159,-427.81 163.82,-433.33 170.38,-437.47 177.06,-440.54"/>
<polygon fill="black" stroke="black" points="176.17,-443.95 186.76,-444.33 178.72,-437.43 176.17,-443.95"/>
<text text-anchor="middle" x="163.67" y="-439.01" font-family="Times New Roman,serif" font-size="14.00">B</text>
</g>
<!-- 17 -->
<g id="node9" class="node">
<title>17</title>
<ellipse fill="none" stroke="black" cx="207.03" cy="-384.81" rx="20.89" ry="20.89"/>
<text text-anchor="middle" x="207.03" y="-380.61" font-family="Times New Roman,serif" font-size="14.00">17</text>
</g>
<!-- 0&#45;&#45;17 -->
<g id="edge24" class="edge">
<title>0&#45;&#45;17</title>
<path fill="none" stroke="black" d="M126.5,-315.73C132.54,-331.97 143.03,-353.99 159,-367.81 164.08,-372.21 170.39,-375.51 176.73,-377.96"/>
<polygon fill="black" stroke="black" points="175.93,-381.38 186.52,-381.16 178.1,-374.73 175.93,-381.38"/>
<text text-anchor="middle" x="163.67" y="-378.01" font-family="Times New Roman,serif" font-size="14.00">E</text>
</g>
<!-- 23 -->
<g id="node16" class="node">
<title>23</title>
<ellipse fill="none" stroke="black" cx="207.03" cy="-510.81" rx="20.89" ry="20.89"/>
<text text-anchor="middle" x="207.03" y="-506.61" font-family="Times New Roman,serif" font-size="14.00">23</text>
</g>
<!-- 0&#45;&#45;23 -->
<g id="edge13" class="edge">
<title>0&#45;&#45;23</title>
<path fill="none" stroke="black" d="M122.04,-316.77C125.73,-348.85 135.44,-409.72 159,-455.81 165.34,-468.22 175.02,-480.2 183.95,-489.8"/>
<polygon fill="black" stroke="black" points="181.71,-492.52 191.19,-497.26 186.74,-487.64 181.71,-492.52"/>
<text text-anchor="middle" x="163.67" y="-473.01" font-family="Times New Roman,serif" font-size="14.00">B</text>
</g>
<!-- 12 -->
<g id="node17" class="node">
<title>12</title>
<ellipse fill="none" stroke="black" cx="207.03" cy="-269.81" rx="20.89" ry="20.89"/>
<text text-anchor="middle" x="207.03" y="-265.61" font-family="Times New Roman,serif" font-size="14.00">12</text>
</g>
<!-- 0&#45;&#45;12 -->
<g id="edge15" class="edge">
<title>0&#45;&#45;12</title>
<path fill="none" stroke="black" d="M140.39,-288.89C151.41,-285.68 165.21,-281.67 177.31,-278.16"/>
<polygon fill="black" stroke="black" points="178.34,-281.5 186.97,-275.35 176.39,-274.78 178.34,-281.5"/>
<text text-anchor="middle" x="163.67" y="-288.01" font-family="Times New Roman,serif" font-size="14.00">B</text>
</g>
<!-- 18 -->
<g id="node18" class="node">
<title>18</title>
<ellipse fill="none" stroke="black" cx="207.03" cy="-210.81" rx="20.89" ry="20.89"/>
<text text-anchor="middle" x="207.03" y="-206.61" font-family="Times New Roman,serif" font-size="14.00">18</text>
</g>
<!-- 0&#45;&#45;18 -->
<g id="edge16" class="edge">
<title>0&#45;&#45;18</title>
<path fill="none" stroke="black" d="M130.4,-275.97C137.43,-264.37 147.5,-249.73 159,-239.01 164.84,-233.57 171.9,-228.66 178.76,-224.53"/>
<polygon fill="black" stroke="black" points="180.86,-227.36 187.85,-219.39 177.42,-221.27 180.86,-227.36"/>
<text text-anchor="middle" x="163.67" y="-244.01" font-family="Times New Roman,serif" font-size="14.00">F</text>
</g>
<!-- 16 -->
<g id="node19" class="node">
<title>16</title>
<ellipse fill="none" stroke="black" cx="385.19" cy="-358.81" rx="20.89" ry="20.89"/>
<text text-anchor="middle" x="385.19" y="-354.61" font-family="Times New Roman,serif" font-size="14.00">16</text>
</g>
<!-- 0&#45;&#45;16 -->
<g id="edge18" class="edge">
<title>0&#45;&#45;16</title>
<path fill="none" stroke="black" d="M140.63,-300.17C146.56,-301.69 153.03,-303.33 159,-304.81 229.3,-322.25 312.17,-341.89 355.11,-351.99"/>
<polygon fill="black" stroke="black" points="354.35,-355.41 364.89,-354.29 355.95,-348.59 354.35,-355.41"/>
<text text-anchor="middle" x="207.03" y="-326.01" font-family="Times New Roman,serif" font-size="14.00">C</text>
</g>
<!-- 10 -->
<g id="node21" class="node">
<title>10</title>
<ellipse fill="none" stroke="black" cx="207.03" cy="-52.81" rx="20.89" ry="20.89"/>
<text text-anchor="middle" x="207.03" y="-48.61" font-family="Times New Roman,serif" font-size="14.00">10</text>
</g>
<!-- 0&#45;&#45;10 -->
<g id="edge22" class="edge">
<title>0&#45;&#45;10</title>
<path fill="none" stroke="black" d="M121.12,-272.88C124.11,-222.75 133.8,-101.73 159,-71.01 163.55,-65.46 170.01,-61.6 176.69,-58.92"/>
<polygon fill="black" stroke="black" points="178,-62.17 186.43,-55.76 175.84,-55.51 178,-62.17"/>
<text text-anchor="middle" x="163.67" y="-76.01" font-family="Times New Roman,serif" font-size="14.00">B</text>
</g>
<!-- 9 -->
<g id="node14" class="node">
<title>9</title>
<ellipse fill="none" stroke="black" cx="325.81" cy="-148.81" rx="18" ry="18"/>
<text text-anchor="middle" x="325.81" y="-144.61" font-family="Times New Roman,serif" font-size="14.00">9</text>
</g>
<!-- 13&#45;&#45;9 -->
<g id="edge11" class="edge">
<title>13&#45;&#45;9</title>
<path fill="none" stroke="black" d="M227.84,-150.47C246.99,-150.14 276.16,-149.64 297.5,-149.28"/>
<polygon fill="black" stroke="black" points="297.63,-152.78 307.57,-149.11 297.51,-145.78 297.63,-152.78"/>
<text text-anchor="middle" x="266.42" y="-155.01" font-family="Times New Roman,serif" font-size="14.00">B</text>
</g>
<!-- 4 -->
<g id="node6" class="node">
<title>4</title>
<ellipse fill="red" stroke="red" cx="532.61" cy="-510.81" rx="18" ry="18"/>
<ellipse fill="none" stroke="red" cx="532.61" cy="-510.81" rx="22" ry="22"/>
<text text-anchor="middle" x="532.61" y="-506.61" font-family="Times New Roman,serif" font-size="14.00">4</text>
</g>
<!-- 24&#45;&#45;4 -->
<g id="edge21" class="edge">
<title>24&#45;&#45;4</title>
<path fill="none" stroke="black" d="M287.29,-559.36C323.2,-558.22 401.11,-554.28 465.27,-540.81 478.61,-538.01 492.48,-532.25 504.07,-526.52"/>
<polygon fill="black" stroke="black" points="505.94,-529.49 513.2,-521.77 502.71,-523.28 505.94,-529.49"/>
<text text-anchor="middle" x="385.19" y="-558.01" font-family="Times New Roman,serif" font-size="14.00">C</text>
</g>
<!-- 11&#45;&#45;0 -->
<g id="edge3" class="edge">
<title>11&#45;&#45;0</title>
<path fill="none" stroke="black" d="M191.36,-434.77C181.23,-424.46 168.01,-409.7 159,-394.81 145.88,-373.13 135.69,-346.25 129.02,-325.83"/>
<polygon fill="black" stroke="black" points="132.29,-324.57 125.95,-316.08 125.62,-326.67 132.29,-324.57"/>
<text text-anchor="middle" x="163.67" y="-411.01" font-family="Times New Roman,serif" font-size="14.00">E</text>
</g>
<!-- 27 -->
<g id="node5" class="node">
<title>27</title>
<ellipse fill="none" stroke="black" cx="794.09" cy="-586.81" rx="20.89" ry="20.89"/>
<text text-anchor="middle" x="794.09" y="-582.61" font-family="Times New Roman,serif" font-size="14.00">27</text>
</g>
<!-- 27&#45;&#45;4 -->
<g id="edge4" class="edge">
<title>27&#45;&#45;4</title>
<path fill="none" stroke="black" d="M774.09,-592.72C738.06,-602.79 658.21,-619.64 599.95,-591.81 577.11,-580.91 559.5,-557.91 548.17,-539.19"/>
<polygon fill="black" stroke="black" points="551.15,-537.34 543.13,-530.42 545.08,-540.83 551.15,-537.34"/>
<text text-anchor="middle" x="664" y="-611.01" font-family="Times New Roman,serif" font-size="14.00">B</text>
</g>
<!-- 21 -->
<g id="node7" class="node">
<title>21</title>
<ellipse fill="none" stroke="black" cx="620.64" cy="-561.81" rx="20.89" ry="20.89"/>
<text text-anchor="middle" x="620.64" y="-557.61" font-family="Times New Roman,serif" font-size="14.00">21</text>
</g>
<!-- 4&#45;&#45;21 -->
<g id="edge29" class="edge">
<title>4&#45;&#45;21</title>
<path fill="none" stroke="black" d="M551.86,-521.63C563.96,-528.8 580.03,-538.33 593.49,-546.31"/>
<polygon fill="black" stroke="black" points="591.92,-549.44 602.3,-551.53 595.49,-543.42 591.92,-549.44"/>
<text text-anchor="middle" x="577.28" y="-543.01" font-family="Times New Roman,serif" font-size="14.00">B</text>
</g>
<!-- 22 -->
<g id="node10" class="node">
<title>22</title>
<ellipse fill="none" stroke="black" cx="620.64" cy="-500.81" rx="20.89" ry="20.89"/>
<text text-anchor="middle" x="620.64" y="-496.61" font-family="Times New Roman,serif" font-size="14.00">22</text>
</g>
<!-- 4&#45;&#45;22 -->
<g id="edge8" class="edge">
<title>4&#45;&#45;22</title>
<path fill="none" stroke="black" d="M554.85,-510.7C563.31,-510.46 573.11,-509.92 581.95,-508.81 584.66,-508.47 587.46,-508.04 590.25,-507.54"/>
<polygon fill="black" stroke="black" points="591.05,-510.96 600.18,-505.59 589.7,-504.09 591.05,-510.96"/>
<text text-anchor="middle" x="577.28" y="-513.01" font-family="Times New Roman,serif" font-size="14.00">B</text>
</g>
<!-- 15 -->
<g id="node13" class="node">
<title>15</title>
<ellipse fill="none" stroke="black" cx="620.64" cy="-429.81" rx="20.89" ry="20.89"/>
<text text-anchor="middle" x="620.64" y="-425.61" font-family="Times New Roman,serif" font-size="14.00">15</text>
</g>
<!-- 4&#45;&#45;15 -->
<g id="edge14" class="edge">
<title>4&#45;&#45;15</title>
<path fill="none" stroke="black" d="M548.07,-494.95C555.27,-487.25 564.21,-477.96 572.61,-470.01 580.06,-462.96 588.49,-455.58 596.14,-449.1"/>
<polygon fill="black" stroke="black" points="598.64,-451.57 604.05,-442.47 594.14,-446.21 598.64,-451.57"/>
<text text-anchor="middle" x="577.28" y="-474.01" font-family="Times New Roman,serif" font-size="14.00">C</text>
</g>
<!-- 25 -->
<g id="node8" class="node">
<title>25</title>
<ellipse fill="none" stroke="black" cx="707.37" cy="-561.81" rx="20.89" ry="20.89"/>
<text text-anchor="middle" x="707.37" y="-557.61" font-family="Times New Roman,serif" font-size="14.00">25</text>
</g>
<!-- 21&#45;&#45;25 -->
<g id="edge5" class="edge">
<title>21&#45;&#45;25</title>
<path fill="none" stroke="black" d="M641.72,-561.81C652.06,-561.81 664.88,-561.81 676.36,-561.81"/>
<polygon fill="black" stroke="black" points="676.43,-565.31 686.43,-561.81 676.43,-558.31 676.43,-565.31"/>
<text text-anchor="middle" x="664" y="-566.01" font-family="Times New Roman,serif" font-size="14.00">B</text>
</g>
<!-- 25&#45;&#45;27 -->
<g id="edge28" class="edge">
<title>25&#45;&#45;27</title>
<path fill="none" stroke="black" d="M727.59,-567.48C738.42,-570.68 752.17,-574.74 764.27,-578.31"/>
<polygon fill="black" stroke="black" points="763.36,-581.69 773.94,-581.16 765.34,-574.97 763.36,-581.69"/>
<text text-anchor="middle" x="750.73" y="-579.01" font-family="Times New Roman,serif" font-size="14.00">B</text>
</g>
<!-- 17&#45;&#45;0 -->
<g id="edge6" class="edge">
<title>17&#45;&#45;0</title>
<path fill="none" stroke="black" d="M191.44,-370.59C182.06,-361.36 169.67,-349.01 159,-337.81 153.13,-331.65 146.9,-324.89 141.17,-318.58"/>
<polygon fill="black" stroke="black" points="143.56,-315.99 134.26,-310.91 138.36,-320.68 143.56,-315.99"/>
<text text-anchor="middle" x="163.67" y="-351.01" font-family="Times New Roman,serif" font-size="14.00">B</text>
</g>
<!-- 22&#45;&#45;4 -->
<g id="edge7" class="edge">
<title>22&#45;&#45;4</title>
<path fill="none" stroke="black" d="M600.8,-493.75C592.18,-491.42 581.84,-489.9 572.61,-492.01 568.87,-492.87 565.08,-494.13 561.39,-495.6"/>
<polygon fill="black" stroke="black" points="559.69,-492.53 552.03,-499.84 562.58,-498.9 559.69,-492.53"/>
<text text-anchor="middle" x="577.28" y="-496.01" font-family="Times New Roman,serif" font-size="14.00">C</text>
</g>
<!-- 8 -->
<g id="node11" class="node">
<title>8</title>
<ellipse fill="none" stroke="black" cx="325.81" cy="-50.81" rx="18" ry="18"/>
<text text-anchor="middle" x="325.81" y="-46.61" font-family="Times New Roman,serif" font-size="14.00">8</text>
</g>
<!-- 19 -->
<g id="node12" class="node">
<title>19</title>
<ellipse fill="none" stroke="black" cx="444.58" cy="-23.81" rx="20.89" ry="20.89"/>
<text text-anchor="middle" x="444.58" y="-19.61" font-family="Times New Roman,serif" font-size="14.00">19</text>
</g>
<!-- 8&#45;&#45;19 -->
<g id="edge9" class="edge">
<title>8&#45;&#45;19</title>
<path fill="none" stroke="black" d="M343.54,-46.94C361.94,-42.69 391.86,-35.77 414.19,-30.61"/>
<polygon fill="black" stroke="black" points="415.2,-33.97 424.15,-28.3 413.62,-27.15 415.2,-33.97"/>
<text text-anchor="middle" x="385.19" y="-47.01" font-family="Times New Roman,serif" font-size="14.00">B</text>
</g>
<!-- 19&#45;&#45;0 -->
<g id="edge26" class="edge">
<title>19&#45;&#45;0</title>
<path fill="none" stroke="black" d="M424.49,-18.18C379.92,-6.17 266.68,17.72 186.34,-22.81 143.39,-44.48 127.2,-195.21 122.06,-262.5"/>
<polygon fill="black" stroke="black" points="118.57,-262.32 121.33,-272.55 125.55,-262.83 118.57,-262.32"/>
<text text-anchor="middle" x="266.42" y="-9.01" font-family="Times New Roman,serif" font-size="14.00">B</text>
</g>
<!-- 15&#45;&#45;4 -->
<g id="edge10" class="edge">
<title>15&#45;&#45;4</title>
<path fill="none" stroke="black" d="M603.93,-416.77C594.34,-410.46 582.14,-405.53 572.61,-412.01 550.79,-426.85 541.18,-455.97 536.95,-478.77"/>
<polygon fill="black" stroke="black" points="533.48,-478.3 535.35,-488.72 540.39,-479.4 533.48,-478.3"/>
<text text-anchor="middle" x="577.28" y="-416.01" font-family="Times New Roman,serif" font-size="14.00">B</text>
</g>
<!-- 20 -->
<g id="node22" class="node">
<title>20</title>
<ellipse fill="none" stroke="black" cx="444.58" cy="-120.81" rx="20.89" ry="20.89"/>
<text text-anchor="middle" x="444.58" y="-116.61" font-family="Times New Roman,serif" font-size="14.00">20</text>
</g>
<!-- 9&#45;&#45;20 -->
<g id="edge27" class="edge">
<title>9&#45;&#45;20</title>
<path fill="none" stroke="black" d="M343.54,-144.8C361.94,-140.39 391.86,-133.21 414.19,-127.86"/>
<polygon fill="black" stroke="black" points="415.25,-131.2 424.15,-125.47 413.61,-124.4 415.25,-131.2"/>
<text text-anchor="middle" x="385.19" y="-144.01" font-family="Times New Roman,serif" font-size="14.00">D</text>
</g>
<!-- 28 -->
<g id="node15" class="node">
<title>28</title>
<ellipse fill="none" stroke="black" cx="444.58" cy="-510.81" rx="20.89" ry="20.89"/>
<text text-anchor="middle" x="444.58" y="-506.61" font-family="Times New Roman,serif" font-size="14.00">28</text>
</g>
<!-- 28&#45;&#45;4 -->
<g id="edge12" class="edge">
<title>28&#45;&#45;4</title>
<path fill="none" stroke="black" d="M465.53,-510.81C475.87,-510.81 488.73,-510.81 500.35,-510.81"/>
<polygon fill="black" stroke="black" points="500.56,-514.31 510.56,-510.81 500.56,-507.31 500.56,-514.31"/>
<text text-anchor="middle" x="487.94" y="-515.01" font-family="Times New Roman,serif" font-size="14.00">B</text>
</g>
<!-- 26 -->
<g id="node20" class="node">
<title>26</title>
<ellipse fill="none" stroke="black" cx="325.81" cy="-510.81" rx="20.89" ry="20.89"/>
<text text-anchor="middle" x="325.81" y="-506.61" font-family="Times New Roman,serif" font-size="14.00">26</text>
</g>
<!-- 23&#45;&#45;26 -->
<g id="edge23" class="edge">
<title>23&#45;&#45;26</title>
<path fill="none" stroke="black" d="M227.84,-510.81C246.21,-510.81 273.8,-510.81 294.86,-510.81"/>
<polygon fill="black" stroke="black" points="294.9,-514.31 304.9,-510.81 294.9,-507.31 294.9,-514.31"/>
<text text-anchor="middle" x="266.42" y="-515.01" font-family="Times New Roman,serif" font-size="14.00">B</text>
</g>
<!-- 12&#45;&#45;0 -->
<g id="edge31" class="edge">
<title>12&#45;&#45;0</title>
<path fill="none" stroke="black" d="M187.77,-261.91C178.89,-259.19 168.18,-257.59 159,-261.01 152.72,-263.35 146.78,-267.21 141.52,-271.5"/>
<polygon fill="black" stroke="black" points="138.92,-269.14 133.85,-278.45 143.61,-274.33 138.92,-269.14"/>
<text text-anchor="middle" x="163.67" y="-266.01" font-family="Times New Roman,serif" font-size="14.00">F</text>
</g>
<!-- 18&#45;&#45;0 -->
<g id="edge33" class="edge">
<title>18&#45;&#45;0</title>
<path fill="none" stroke="black" d="M186.37,-206.34C177.38,-205.38 166.98,-205.9 159,-211.01 141.1,-222.48 131.28,-244.52 125.98,-263.11"/>
<polygon fill="black" stroke="black" points="122.53,-262.45 123.47,-273 129.32,-264.17 122.53,-262.45"/>
<text text-anchor="middle" x="163.67" y="-216.01" font-family="Times New Roman,serif" font-size="14.00">B</text>
</g>
<!-- 16&#45;&#45;4 -->
<g id="edge17" class="edge">
<title>16&#45;&#45;4</title>
<path fill="none" stroke="black" d="M400.14,-373.39C425.43,-399.83 479.07,-455.9 509.44,-487.64"/>
<polygon fill="black" stroke="black" points="507.19,-490.34 516.63,-495.15 512.24,-485.51 507.19,-490.34"/>
<text text-anchor="middle" x="444.58" y="-445.01" font-family="Times New Roman,serif" font-size="14.00">B</text>
</g>
<!-- 26&#45;&#45;28 -->
<g id="edge20" class="edge">
<title>26&#45;&#45;28</title>
<path fill="none" stroke="black" d="M346.61,-510.81C364.98,-510.81 392.58,-510.81 413.63,-510.81"/>
<polygon fill="black" stroke="black" points="413.67,-514.31 423.67,-510.81 413.67,-507.31 413.67,-514.31"/>
<text text-anchor="middle" x="385.19" y="-515.01" font-family="Times New Roman,serif" font-size="14.00">B</text>
</g>
<!-- 10&#45;&#45;8 -->
<g id="edge25" class="edge">
<title>10&#45;&#45;8</title>
<path fill="none" stroke="black" d="M227.84,-52.47C246.99,-52.14 276.16,-51.64 297.5,-51.28"/>
<polygon fill="black" stroke="black" points="297.63,-54.78 307.57,-51.11 297.51,-47.78 297.63,-54.78"/>
<text text-anchor="middle" x="266.42" y="-57.01" font-family="Times New Roman,serif" font-size="14.00">D</text>
</g>
<!-- 20&#45;&#45;0 -->
<g id="edge30" class="edge">
<title>20&#45;&#45;0</title>
<path fill="none" stroke="black" d="M424.69,-114.65C379.57,-101.14 263.56,-73.75 186.34,-120.81 137.96,-150.29 124.73,-220.95 121.2,-262.59"/>
<polygon fill="black" stroke="black" points="117.69,-262.54 120.48,-272.76 124.67,-263.03 117.69,-262.54"/>
<text text-anchor="middle" x="266.42" y="-103.01" font-family="Times New Roman,serif" font-size="14.00">B</text>
</g>
<!-- 29 -->
<!-- 29&#45;&#45;0 -->
<g id="edge32" class="edge">
<title>29&#45;&#45;0</title>
<path fill="none" stroke="darkgreen" stroke-width="4" d="M54.03,-294.81C64.23,-294.81 76.03,-294.81 86.69,-294.81"/>
<polygon fill="darkgreen" stroke="darkgreen" stroke-width="4" points="86.87,-298.31 96.87,-294.81 86.87,-291.31 86.87,-298.31"/>
<text text-anchor="start" x="72" y="-299.01" font-family="Times New Roman,serif" font-size="14.00">ε</text>
</g>
</g>
</svg>
