<?xml version="1.0" encoding="UTF-8" standalone="no"?>
<!DOCTYPE svg PUBLIC "-//W3C//DTD SVG 1.1//EN"
 "http://www.w3.org/Graphics/SVG/1.1/DTD/svg11.dtd">
<!-- Generated by graphviz version 2.50.0 (0)
 -->
<!-- Title: G Pages: 1 -->
<svg width="557pt" height="85pt"
 viewBox="0.00 0.00 557.23 85.00" xmlns="http://www.w3.org/2000/svg" xmlns:xlink="http://www.w3.org/1999/xlink">
<g id="graph0" class="graph" transform="scale(1 1) rotate(0) translate(4 81)">
<title>G</title>
<polygon fill="white" stroke="transparent" points="-4,4 -4,-81 553.23,-81 553.23,4 -4,4"/>
<!-- 6 -->
<!-- 0 -->
<g id="node2" class="node">
<title>0</title>
<ellipse fill="none" stroke="black" cx="115.79" cy="-22" rx="18" ry="18"/>
<text text-anchor="middle" x="115.79" y="-17.8" font-family="Times New Roman,serif" font-size="14.00">0</text>
</g>
<!-- 6&#45;&#45;0 -->
<g id="edge1" class="edge">
<title>6&#45;&#45;0</title>
<path fill="none" stroke="darkgreen" stroke-width="4" d="M54.04,-22C64.6,-22 76.8,-22 87.49,-22"/>
<polygon fill="darkgreen" stroke="darkgreen" stroke-width="4" points="87.55,-25.5 97.55,-22 87.55,-18.5 87.55,-25.5"/>
<text text-anchor="middle" x="75.89" y="-26.2" font-family="Times New Roman,serif" font-size="14.00">F</text>
</g>
<!-- 1 -->
<g id="node3" class="node">
<title>1</title>
<ellipse fill="none" stroke="black" cx="196.34" cy="-22" rx="18" ry="18"/>
<text text-anchor="middle" x="196.34" y="-17.8" font-family="Times New Roman,serif" font-size="14.00">1</text>
</g>
<!-- 0&#45;&#45;1 -->
<g id="edge2" class="edge">
<title>0&#45;&#45;1</title>
<path fill="none" stroke="black" d="M133.83,-22C143.82,-22 156.66,-22 168.02,-22"/>
<polygon fill="black" stroke="black" points="168.33,-25.5 178.33,-22 168.33,-18.5 168.33,-25.5"/>
<text text-anchor="middle" x="156.06" y="-26.2" font-family="Times New Roman,serif" font-size="14.00">E</text>
</g>
<!-- 2 -->
<g id="node4" class="node">
<title>2</title>
<ellipse fill="none" stroke="black" cx="278.45" cy="-22" rx="18" ry="18"/>
<text text-anchor="middle" x="278.45" y="-17.8" font-family="Times New Roman,serif" font-size="14.00">2</text>
</g>
<!-- 1&#45;&#45;2 -->
<g id="edge3" class="edge">
<title>1&#45;&#45;2</title>
<path fill="none" stroke="black" d="M214.72,-22C225.08,-22 238.45,-22 250.19,-22"/>
<polygon fill="black" stroke="black" points="250.37,-25.5 260.37,-22 250.37,-18.5 250.37,-25.5"/>
<text text-anchor="middle" x="237.39" y="-26.2" font-family="Times New Roman,serif" font-size="14.00">D</text>
</g>
<!-- 3 -->
<g id="node5" class="node">
<title>3</title>
<ellipse fill="none" stroke="black" cx="360.56" cy="-59" rx="18" ry="18"/>
<text text-anchor="middle" x="360.56" y="-54.8" font-family="Times New Roman,serif" font-size="14.00">3</text>
</g>
<!-- 2&#45;&#45;3 -->
<g id="edge4" class="edge">
<title>2&#45;&#45;3</title>
<path fill="none" stroke="black" d="M295.28,-29.31C306.54,-34.51 321.9,-41.61 334.78,-47.56"/>
<polygon fill="black" stroke="black" points="333.49,-50.82 344.04,-51.83 336.43,-44.46 333.49,-50.82"/>
<text text-anchor="middle" x="319.5" y="-46.2" font-family="Times New Roman,serif" font-size="14.00">A</text>
</g>
<!-- 4 -->
<g id="node6" class="node">
<title>4</title>
<ellipse fill="none" stroke="black" cx="441.9" cy="-22" rx="18" ry="18"/>
<text text-anchor="middle" x="441.9" y="-17.8" font-family="Times New Roman,serif" font-size="14.00">4</text>
</g>
<!-- 3&#45;&#45;4 -->
<g id="edge5" class="edge">
<title>3&#45;&#45;4</title>
<path fill="none" stroke="black" d="M377.23,-51.69C388.32,-46.52 403.4,-39.49 416.11,-33.56"/>
<polygon fill="black" stroke="black" points="417.67,-36.69 425.25,-29.29 414.71,-30.35 417.67,-36.69"/>
<text text-anchor="middle" x="401.23" y="-45.2" font-family="Times New Roman,serif" font-size="14.00">B</text>
</g>
<!-- 4&#45;&#45;2 -->
<g id="edge7" class="edge">
<title>4&#45;&#45;2</title>
<path fill="none" stroke="black" d="M424,-19.65C411.49,-18.04 393.99,-16.04 378.56,-15.2 362.58,-14.33 358.54,-14.34 342.56,-15.2 330.72,-15.84 317.68,-17.14 306.54,-18.44"/>
<polygon fill="black" stroke="black" points="306.05,-14.97 296.55,-19.65 306.9,-21.92 306.05,-14.97"/>
<text text-anchor="middle" x="360.56" y="-20.2" font-family="Times New Roman,serif" font-size="14.00">B</text>
</g>
<!-- 5 -->
<g id="node7" class="node">
<title>5</title>
<ellipse fill="red" stroke="red" cx="527.23" cy="-22" rx="18" ry="18"/>
<ellipse fill="none" stroke="red" cx="527.23" cy="-22" rx="22" ry="22"/>
<text text-anchor="middle" x="527.23" y="-17.8" font-family="Times New Roman,serif" font-size="14.00">5</text>
</g>
<!-- 4&#45;&#45;5 -->
<g id="edge6" class="edge">
<title>4&#45;&#45;5</title>
<path fill="none" stroke="black" d="M460.16,-22C470.17,-22 483.06,-22 494.8,-22"/>
<polygon fill="black" stroke="black" points="495.15,-25.5 505.15,-22 495.15,-18.5 495.15,-25.5"/>
<text text-anchor="middle" x="482.57" y="-26.2" font-family="Times New Roman,serif" font-size="14.00">C</text>
</g>
</g>
</svg>
