<?xml version="1.0" encoding="UTF-8" standalone="no"?>
<!DOCTYPE svg PUBLIC "-//W3C//DTD SVG 1.1//EN"
 "http://www.w3.org/Graphics/SVG/1.1/DTD/svg11.dtd">
<!-- Generated by graphviz version 2.50.0 (0)
 -->
<!-- Title: G Pages: 1 -->
<svg width="850pt" height="206pt"
 viewBox="0.00 0.00 849.57 206.00" xmlns="http://www.w3.org/2000/svg" xmlns:xlink="http://www.w3.org/1999/xlink">
<g id="graph0" class="graph" transform="scale(1 1) rotate(0) translate(4 202)">
<title>G</title>
<polygon fill="white" stroke="transparent" points="-4,4 -4,-202 845.57,-202 845.57,4 -4,4"/>
<!-- 14 -->
<g id="node1" class="node">
<title>14</title>
<ellipse fill="none" stroke="black" cx="558.09" cy="-22" rx="20.89" ry="20.89"/>
<text text-anchor="middle" x="558.09" y="-17.8" font-family="Times New Roman,serif" font-size="14.00">14</text>
</g>
<!-- 7 -->
<g id="node2" class="node">
<title>7</title>
<ellipse fill="red" stroke="red" cx="646.12" cy="-22" rx="18" ry="18"/>
<ellipse fill="none" stroke="red" cx="646.12" cy="-22" rx="22" ry="22"/>
<text text-anchor="middle" x="646.12" y="-17.8" font-family="Times New Roman,serif" font-size="14.00">7</text>
</g>
<!-- 14&#45;&#45;7 -->
<g id="edge1" class="edge">
<title>14&#45;&#45;7</title>
<path fill="none" stroke="black" d="M579.04,-22C589.38,-22 602.24,-22 613.86,-22"/>
<polygon fill="black" stroke="black" points="614.07,-25.5 624.07,-22 614.07,-18.5 614.07,-25.5"/>
<text text-anchor="middle" x="601.45" y="-26.2" font-family="Times New Roman,serif" font-size="14.00">B</text>
</g>
<!-- 11 -->
<g id="node10" class="node">
<title>11</title>
<ellipse fill="none" stroke="black" cx="734.15" cy="-61" rx="20.89" ry="20.89"/>
<text text-anchor="middle" x="734.15" y="-56.8" font-family="Times New Roman,serif" font-size="14.00">11</text>
</g>
<!-- 7&#45;&#45;11 -->
<g id="edge7" class="edge">
<title>7&#45;&#45;11</title>
<path fill="none" stroke="black" d="M666.64,-30.85C678.18,-36.08 692.96,-42.78 705.67,-48.54"/>
<polygon fill="black" stroke="black" points="704.33,-51.78 714.88,-52.72 707.22,-45.4 704.33,-51.78"/>
<text text-anchor="middle" x="690.79" y="-48.2" font-family="Times New Roman,serif" font-size="14.00">C</text>
</g>
<!-- 2 -->
<g id="node3" class="node">
<title>2</title>
<ellipse fill="none" stroke="black" cx="294.53" cy="-180" rx="18" ry="18"/>
<text text-anchor="middle" x="294.53" y="-175.8" font-family="Times New Roman,serif" font-size="14.00">2</text>
</g>
<!-- 0 -->
<g id="node4" class="node">
<title>0</title>
<ellipse fill="red" stroke="red" cx="119" cy="-140" rx="18" ry="18"/>
<ellipse fill="none" stroke="red" cx="119" cy="-140" rx="22" ry="22"/>
<text text-anchor="middle" x="119" y="-135.8" font-family="Times New Roman,serif" font-size="14.00">0</text>
</g>
<!-- 2&#45;&#45;0 -->
<g id="edge2" class="edge">
<title>2&#45;&#45;0</title>
<path fill="none" stroke="black" d="M276.68,-182.45C267.51,-183.44 255.98,-184.11 245.72,-183 206.19,-178.72 195.53,-176.7 159,-161 155.11,-159.33 151.08,-157.4 147.16,-155.41"/>
<polygon fill="black" stroke="black" points="148.79,-152.31 138.32,-150.72 145.52,-158.5 148.79,-152.31"/>
<text text-anchor="middle" x="207.03" y="-184.2" font-family="Times New Roman,serif" font-size="14.00">B</text>
</g>
<!-- 10 -->
<g id="node5" class="node">
<title>10</title>
<ellipse fill="none" stroke="black" cx="207.03" cy="-140" rx="20.89" ry="20.89"/>
<text text-anchor="middle" x="207.03" y="-135.8" font-family="Times New Roman,serif" font-size="14.00">10</text>
</g>
<!-- 0&#45;&#45;10 -->
<g id="edge3" class="edge">
<title>0&#45;&#45;10</title>
<path fill="none" stroke="black" d="M141.27,-140C151.78,-140 164.65,-140 176.14,-140"/>
<polygon fill="black" stroke="black" points="176.19,-143.5 186.19,-140 176.19,-136.5 176.19,-143.5"/>
<text text-anchor="middle" x="163.67" y="-144.2" font-family="Times New Roman,serif" font-size="14.00">C</text>
</g>
<!-- 16 -->
<g id="node7" class="node">
<title>16</title>
<ellipse fill="none" stroke="black" cx="207.03" cy="-81" rx="20.89" ry="20.89"/>
<text text-anchor="middle" x="207.03" y="-76.8" font-family="Times New Roman,serif" font-size="14.00">16</text>
</g>
<!-- 0&#45;&#45;16 -->
<g id="edge5" class="edge">
<title>0&#45;&#45;16</title>
<path fill="none" stroke="black" d="M137.83,-127.78C150.26,-119.25 167.03,-107.75 180.83,-98.28"/>
<polygon fill="black" stroke="black" points="183.13,-100.95 189.4,-92.41 179.17,-95.18 183.13,-100.95"/>
<text text-anchor="middle" x="163.67" y="-117.2" font-family="Times New Roman,serif" font-size="14.00">C</text>
</g>
<!-- 10&#45;&#45;2 -->
<g id="edge11" class="edge">
<title>10&#45;&#45;2</title>
<path fill="none" stroke="black" d="M226.16,-148.48C238.55,-154.28 255.12,-162.03 268.72,-168.39"/>
<polygon fill="black" stroke="black" points="267.46,-171.67 278,-172.74 270.43,-165.33 267.46,-171.67"/>
<text text-anchor="middle" x="250.78" y="-166.2" font-family="Times New Roman,serif" font-size="14.00">C</text>
</g>
<!-- 19 -->
<!-- 19&#45;&#45;0 -->
<g id="edge4" class="edge">
<title>19&#45;&#45;0</title>
<path fill="none" stroke="darkgreen" stroke-width="4" d="M54.03,-140C64.23,-140 76.03,-140 86.69,-140"/>
<polygon fill="darkgreen" stroke="darkgreen" stroke-width="4" points="86.87,-143.5 96.87,-140 86.87,-136.5 86.87,-143.5"/>
<text text-anchor="start" x="72" y="-144.2" font-family="Times New Roman,serif" font-size="14.00">ε</text>
</g>
<!-- 18 -->
<g id="node14" class="node">
<title>18</title>
<ellipse fill="none" stroke="black" cx="294.53" cy="-81" rx="20.89" ry="20.89"/>
<text text-anchor="middle" x="294.53" y="-76.8" font-family="Times New Roman,serif" font-size="14.00">18</text>
</g>
<!-- 16&#45;&#45;18 -->
<g id="edge16" class="edge">
<title>16&#45;&#45;18</title>
<path fill="none" stroke="black" d="M227.86,-81C238.44,-81 251.67,-81 263.48,-81"/>
<polygon fill="black" stroke="black" points="263.81,-84.5 273.81,-81 263.81,-77.5 263.81,-84.5"/>
<text text-anchor="middle" x="250.78" y="-85.2" font-family="Times New Roman,serif" font-size="14.00">D</text>
</g>
<!-- 15 -->
<g id="node8" class="node">
<title>15</title>
<ellipse fill="none" stroke="black" cx="470.59" cy="-81" rx="20.89" ry="20.89"/>
<text text-anchor="middle" x="470.59" y="-76.8" font-family="Times New Roman,serif" font-size="14.00">15</text>
</g>
<!-- 17 -->
<g id="node9" class="node">
<title>17</title>
<ellipse fill="none" stroke="black" cx="558.09" cy="-121" rx="20.89" ry="20.89"/>
<text text-anchor="middle" x="558.09" y="-116.8" font-family="Times New Roman,serif" font-size="14.00">17</text>
</g>
<!-- 15&#45;&#45;17 -->
<g id="edge6" class="edge">
<title>15&#45;&#45;17</title>
<path fill="none" stroke="black" d="M489.72,-89.48C501.4,-94.95 516.79,-102.15 529.91,-108.29"/>
<polygon fill="black" stroke="black" points="528.44,-111.46 538.98,-112.53 531.41,-105.12 528.44,-111.46"/>
<text text-anchor="middle" x="514.34" y="-107.2" font-family="Times New Roman,serif" font-size="14.00">D</text>
</g>
<!-- 4 -->
<g id="node11" class="node">
<title>4</title>
<ellipse fill="red" stroke="red" cx="382.56" cy="-81" rx="18" ry="18"/>
<ellipse fill="none" stroke="red" cx="382.56" cy="-81" rx="22" ry="22"/>
<text text-anchor="middle" x="382.56" y="-76.8" font-family="Times New Roman,serif" font-size="14.00">4</text>
</g>
<!-- 17&#45;&#45;4 -->
<g id="edge9" class="edge">
<title>17&#45;&#45;4</title>
<path fill="none" stroke="black" d="M537.52,-123.73C528.85,-124.55 518.54,-125 509.28,-124 469.75,-119.72 459.09,-117.7 422.56,-102 418.67,-100.33 414.64,-98.4 410.72,-96.41"/>
<polygon fill="black" stroke="black" points="412.35,-93.31 401.88,-91.72 409.08,-99.5 412.35,-93.31"/>
<text text-anchor="middle" x="470.59" y="-126.2" font-family="Times New Roman,serif" font-size="14.00">B</text>
</g>
<!-- 13 -->
<g id="node13" class="node">
<title>13</title>
<ellipse fill="none" stroke="black" cx="820.88" cy="-22" rx="20.89" ry="20.89"/>
<text text-anchor="middle" x="820.88" y="-17.8" font-family="Times New Roman,serif" font-size="14.00">13</text>
</g>
<!-- 11&#45;&#45;13 -->
<g id="edge12" class="edge">
<title>11&#45;&#45;13</title>
<path fill="none" stroke="black" d="M753.54,-52.54C764.94,-47.29 779.8,-40.45 792.56,-34.57"/>
<polygon fill="black" stroke="black" points="794.2,-37.67 801.82,-30.31 791.27,-31.31 794.2,-37.67"/>
<text text-anchor="middle" x="777.51" y="-47.2" font-family="Times New Roman,serif" font-size="14.00">C</text>
</g>
<!-- 4&#45;&#45;15 -->
<g id="edge15" class="edge">
<title>4&#45;&#45;15</title>
<path fill="none" stroke="black" d="M404.83,-81C415.34,-81 428.21,-81 439.7,-81"/>
<polygon fill="black" stroke="black" points="439.75,-84.5 449.75,-81 439.75,-77.5 439.75,-84.5"/>
<text text-anchor="middle" x="427.23" y="-85.2" font-family="Times New Roman,serif" font-size="14.00">C</text>
</g>
<!-- 12 -->
<g id="node12" class="node">
<title>12</title>
<ellipse fill="none" stroke="black" cx="470.59" cy="-22" rx="20.89" ry="20.89"/>
<text text-anchor="middle" x="470.59" y="-17.8" font-family="Times New Roman,serif" font-size="14.00">12</text>
</g>
<!-- 4&#45;&#45;12 -->
<g id="edge8" class="edge">
<title>4&#45;&#45;12</title>
<path fill="none" stroke="black" d="M401.39,-68.78C413.82,-60.25 430.59,-48.75 444.39,-39.28"/>
<polygon fill="black" stroke="black" points="446.69,-41.95 452.96,-33.41 442.73,-36.18 446.69,-41.95"/>
<text text-anchor="middle" x="427.23" y="-58.2" font-family="Times New Roman,serif" font-size="14.00">C</text>
</g>
<!-- 12&#45;&#45;14 -->
<g id="edge13" class="edge">
<title>12&#45;&#45;14</title>
<path fill="none" stroke="black" d="M491.42,-22C502,-22 515.23,-22 527.04,-22"/>
<polygon fill="black" stroke="black" points="527.37,-25.5 537.37,-22 527.37,-18.5 527.37,-25.5"/>
<text text-anchor="middle" x="514.34" y="-26.2" font-family="Times New Roman,serif" font-size="14.00">C</text>
</g>
<!-- 13&#45;&#45;7 -->
<g id="edge10" class="edge">
<title>13&#45;&#45;7</title>
<path fill="none" stroke="black" d="M800.3,-19.03C787.41,-17.23 770.17,-15.12 754.84,-14.2 736.48,-13.1 731.82,-13.12 713.46,-14.2 701.88,-14.88 689.22,-16.22 678.09,-17.6"/>
<polygon fill="black" stroke="black" points="677.44,-14.15 667.98,-18.91 678.35,-21.09 677.44,-14.15"/>
<text text-anchor="middle" x="734.15" y="-19.2" font-family="Times New Roman,serif" font-size="14.00">B</text>
</g>
<!-- 18&#45;&#45;4 -->
<g id="edge14" class="edge">
<title>18&#45;&#45;4</title>
<path fill="none" stroke="black" d="M315.48,-81C325.82,-81 338.68,-81 350.3,-81"/>
<polygon fill="black" stroke="black" points="350.51,-84.5 360.51,-81 350.51,-77.5 350.51,-84.5"/>
<text text-anchor="middle" x="337.89" y="-85.2" font-family="Times New Roman,serif" font-size="14.00">B</text>
</g>
</g>
</svg>
