<?xml version="1.0" encoding="UTF-8" standalone="no"?>
<!DOCTYPE svg PUBLIC "-//W3C//DTD SVG 1.1//EN"
 "http://www.w3.org/Graphics/SVG/1.1/DTD/svg11.dtd">
<!-- Generated by graphviz version 2.50.0 (0)
 -->
<!-- Title: G Pages: 1 -->
<svg width="1438pt" height="672pt"
 viewBox="0.00 0.00 1437.74 671.63" xmlns="http://www.w3.org/2000/svg" xmlns:xlink="http://www.w3.org/1999/xlink">
<g id="graph0" class="graph" transform="scale(1 1) rotate(0) translate(4 667.63)">
<title>G</title>
<polygon fill="white" stroke="transparent" points="-4,4 -4,-667.63 1433.74,-667.63 1433.74,4 -4,4"/>
<!-- 2 -->
<g id="node1" class="node">
<title>2</title>
<ellipse fill="none" stroke="black" cx="825.96" cy="-633.28" rx="30.2" ry="30.2"/>
<text text-anchor="middle" x="825.96" y="-629.08" font-family="Times New Roman,serif" font-size="14.00">Es_2</text>
</g>
<!-- 8 -->
<g id="node6" class="node">
<title>8</title>
<ellipse fill="none" stroke="black" cx="340.96" cy="-508.51" rx="36.57" ry="36.57"/>
<text text-anchor="middle" x="340.96" y="-504.31" font-family="Times New Roman,serif" font-size="14.00">[$0]_8</text>
</g>
<!-- 2&#45;&#45;8 -->
<g id="edge1" class="edge">
<title>2&#45;&#45;8</title>
<path fill="none" stroke="black" d="M796.72,-624.87C712.34,-603.52 468.65,-541.83 376.67,-518.55"/>
<text text-anchor="middle" x="658.85" y="-572.33" font-family="Times New Roman,serif" font-size="14.00">2_SINGLE</text>
</g>
<!-- 33 -->
<g id="node23" class="node">
<title>33</title>
<ellipse fill="none" stroke="black" cx="985.96" cy="-508.51" rx="41.72" ry="41.72"/>
<text text-anchor="middle" x="985.96" y="-504.31" font-family="Times New Roman,serif" font-size="14.00">[$0]_33</text>
</g>
<!-- 2&#45;&#45;33 -->
<g id="edge2" class="edge">
<title>2&#45;&#45;33</title>
<path fill="none" stroke="black" d="M849.57,-614.16C877.04,-593.09 922.56,-558.16 953.38,-534.51"/>
<text text-anchor="middle" x="937.85" y="-572.33" font-family="Times New Roman,serif" font-size="14.00">1_SINGLE</text>
</g>
<!-- 4 -->
<g id="node2" class="node">
<title>4</title>
<ellipse fill="none" stroke="black" cx="1320.96" cy="-633.28" rx="27.27" ry="27.27"/>
<text text-anchor="middle" x="1320.96" y="-629.08" font-family="Times New Roman,serif" font-size="14.00">C_4</text>
</g>
<!-- 5 -->
<g id="node3" class="node">
<title>5</title>
<ellipse fill="none" stroke="black" cx="1321.96" cy="-508.51" rx="27.27" ry="27.27"/>
<text text-anchor="middle" x="1321.96" y="-504.31" font-family="Times New Roman,serif" font-size="14.00">C_5</text>
</g>
<!-- 4&#45;&#45;5 -->
<g id="edge4" class="edge">
<title>4&#45;&#45;5</title>
<path fill="none" stroke="black" d="M1321.18,-605.94C1321.35,-585.23 1321.58,-556.51 1321.75,-535.81"/>
<text text-anchor="middle" x="1346.85" y="-572.33" font-family="Times New Roman,serif" font-size="14.00">SINGLE</text>
</g>
<!-- 7 -->
<g id="node5" class="node">
<title>7</title>
<ellipse fill="none" stroke="black" cx="1393.96" cy="-508.51" rx="27.27" ry="27.27"/>
<text text-anchor="middle" x="1393.96" y="-504.31" font-family="Times New Roman,serif" font-size="14.00">C_7</text>
</g>
<!-- 4&#45;&#45;7 -->
<g id="edge3" class="edge">
<title>4&#45;&#45;7</title>
<path fill="none" stroke="black" d="M1342.66,-616.62C1352.86,-608.25 1364.41,-597.16 1371.96,-584.93 1381.28,-569.84 1386.81,-550.63 1389.99,-535.37"/>
<text text-anchor="middle" x="1404.85" y="-572.33" font-family="Times New Roman,serif" font-size="14.00">SINGLE</text>
</g>
<!-- 4&#45;&#45;33 -->
<g id="edge5" class="edge">
<title>4&#45;&#45;33</title>
<path fill="none" stroke="black" d="M1295.78,-623.05C1237.73,-601.78 1094.18,-549.17 1024.77,-523.74"/>
<text text-anchor="middle" x="1215.85" y="-572.33" font-family="Times New Roman,serif" font-size="14.00">2_SINGLE</text>
</g>
<!-- 6 -->
<g id="node4" class="node">
<title>6</title>
<ellipse fill="none" stroke="black" cx="1384.96" cy="-382.14" rx="27.27" ry="27.27"/>
<text text-anchor="middle" x="1384.96" y="-377.94" font-family="Times New Roman,serif" font-size="14.00">C_6</text>
</g>
<!-- 5&#45;&#45;6 -->
<g id="edge6" class="edge">
<title>5&#45;&#45;6</title>
<path fill="none" stroke="black" d="M1333.96,-483.83C1345.17,-461.7 1361.81,-428.84 1373.01,-406.74"/>
<text text-anchor="middle" x="1384.85" y="-436.3" font-family="Times New Roman,serif" font-size="14.00">SINGLE</text>
</g>
<!-- 10 -->
<g id="node7" class="node">
<title>10</title>
<ellipse fill="none" stroke="black" cx="31.96" cy="-382.14" rx="31.93" ry="31.93"/>
<text text-anchor="middle" x="31.96" y="-377.94" font-family="Times New Roman,serif" font-size="14.00">C_10</text>
</g>
<!-- 8&#45;&#45;10 -->
<g id="edge7" class="edge">
<title>8&#45;&#45;10</title>
<path fill="none" stroke="black" d="M304.23,-506.17C230.04,-502.6 66.45,-490.14 32.19,-448.9 24.16,-439.24 22.99,-425.74 24.27,-413.49"/>
<text text-anchor="middle" x="64.85" y="-436.3" font-family="Times New Roman,serif" font-size="14.00">2_SINGLE</text>
</g>
<!-- 13 -->
<g id="node10" class="node">
<title>13</title>
<ellipse fill="none" stroke="black" cx="76.96" cy="-31.96" rx="31.93" ry="31.93"/>
<text text-anchor="middle" x="76.96" y="-27.76" font-family="Times New Roman,serif" font-size="14.00">C_13</text>
</g>
<!-- 8&#45;&#45;13 -->
<g id="edge8" class="edge">
<title>8&#45;&#45;13</title>
<path fill="none" stroke="black" d="M304.36,-504.42C239.22,-496.69 109.96,-470.36 109.96,-383.14 109.96,-383.14 109.96,-383.14 109.96,-147.69 109.96,-117.43 99.23,-84.37 90.01,-61.55"/>
<text text-anchor="middle" x="141.85" y="-261.22" font-family="Times New Roman,serif" font-size="14.00">1_SINGLE</text>
</g>
<!-- 16 -->
<g id="node11" class="node">
<title>16</title>
<ellipse fill="none" stroke="black" cx="217.96" cy="-382.14" rx="31.93" ry="31.93"/>
<text text-anchor="middle" x="217.96" y="-377.94" font-family="Times New Roman,serif" font-size="14.00">C_16</text>
</g>
<!-- 8&#45;&#45;16 -->
<g id="edge9" class="edge">
<title>8&#45;&#45;16</title>
<path fill="none" stroke="black" d="M304.73,-501.66C274.74,-494.7 233.98,-479.85 214.19,-448.9 207.48,-438.4 207.16,-424.92 209.02,-412.9"/>
<text text-anchor="middle" x="246.85" y="-436.3" font-family="Times New Roman,serif" font-size="14.00">1_SINGLE</text>
</g>
<!-- 19 -->
<g id="node14" class="node">
<title>19</title>
<ellipse fill="none" stroke="black" cx="258.96" cy="-31.96" rx="31.93" ry="31.93"/>
<text text-anchor="middle" x="258.96" y="-27.76" font-family="Times New Roman,serif" font-size="14.00">C_19</text>
</g>
<!-- 8&#45;&#45;19 -->
<g id="edge10" class="edge">
<title>8&#45;&#45;19</title>
<path fill="none" stroke="black" d="M321.6,-477.13C307.9,-452.71 291.96,-417.02 291.96,-383.14 291.96,-383.14 291.96,-383.14 291.96,-147.69 291.96,-117.43 281.23,-84.37 272.01,-61.55"/>
<text text-anchor="middle" x="323.85" y="-261.22" font-family="Times New Roman,serif" font-size="14.00">2_SINGLE</text>
</g>
<!-- 22 -->
<g id="node15" class="node">
<title>22</title>
<ellipse fill="none" stroke="black" cx="351.96" cy="-382.14" rx="31.93" ry="31.93"/>
<text text-anchor="middle" x="351.96" y="-377.94" font-family="Times New Roman,serif" font-size="14.00">C_22</text>
</g>
<!-- 8&#45;&#45;22 -->
<g id="edge11" class="edge">
<title>8&#45;&#45;22</title>
<path fill="none" stroke="black" d="M340.23,-471.38C340.32,-458.9 340.82,-444.86 342.19,-432.1 342.84,-426.07 343.86,-419.68 345.01,-413.57"/>
<text text-anchor="middle" x="374.85" y="-436.3" font-family="Times New Roman,serif" font-size="14.00">2_SINGLE</text>
</g>
<!-- 23 -->
<g id="node16" class="node">
<title>23</title>
<ellipse fill="none" stroke="black" cx="412.96" cy="-265.42" rx="31.93" ry="31.93"/>
<text text-anchor="middle" x="412.96" y="-261.22" font-family="Times New Roman,serif" font-size="14.00">C_23</text>
</g>
<!-- 8&#45;&#45;23 -->
<g id="edge12" class="edge">
<title>8&#45;&#45;23</title>
<path fill="none" stroke="black" d="M371.66,-488.16C384.69,-478.17 398.56,-464.73 405.96,-448.9 428.94,-399.8 424.35,-334.87 418.76,-297.17"/>
<text text-anchor="middle" x="455.85" y="-377.94" font-family="Times New Roman,serif" font-size="14.00">1_SINGLE</text>
</g>
<!-- 28 -->
<g id="node19" class="node">
<title>28</title>
<ellipse fill="none" stroke="black" cx="533.96" cy="-382.14" rx="31.93" ry="31.93"/>
<text text-anchor="middle" x="533.96" y="-377.94" font-family="Times New Roman,serif" font-size="14.00">C_28</text>
</g>
<!-- 8&#45;&#45;28 -->
<g id="edge13" class="edge">
<title>8&#45;&#45;28</title>
<path fill="none" stroke="black" d="M371.84,-488.3C401.72,-469.62 448.19,-440.3 487.96,-414.1 494.39,-409.87 501.3,-405.26 507.75,-400.92"/>
<text text-anchor="middle" x="492.85" y="-436.3" font-family="Times New Roman,serif" font-size="14.00">1_SINGLE</text>
</g>
<!-- 29 -->
<g id="node20" class="node">
<title>29</title>
<ellipse fill="none" stroke="black" cx="568.96" cy="-265.42" rx="31.93" ry="31.93"/>
<text text-anchor="middle" x="568.96" y="-261.22" font-family="Times New Roman,serif" font-size="14.00">C_29</text>
</g>
<!-- 8&#45;&#45;29 -->
<g id="edge14" class="edge">
<title>8&#45;&#45;29</title>
<path fill="none" stroke="black" d="M378.05,-505.73C433.02,-500.79 534.02,-482.38 574.96,-414.1 597.73,-376.15 596.11,-358.88 587.96,-315.38 586.67,-308.48 584.44,-301.3 581.95,-294.63"/>
<text text-anchor="middle" x="625.85" y="-377.94" font-family="Times New Roman,serif" font-size="14.00">2_SINGLE</text>
</g>
<!-- 11 -->
<g id="node8" class="node">
<title>11</title>
<ellipse fill="none" stroke="black" cx="33.96" cy="-265.42" rx="31.93" ry="31.93"/>
<text text-anchor="middle" x="33.96" y="-261.22" font-family="Times New Roman,serif" font-size="14.00">C_11</text>
</g>
<!-- 10&#45;&#45;11 -->
<g id="edge15" class="edge">
<title>10&#45;&#45;11</title>
<path fill="none" stroke="black" d="M32.5,-350.09C32.79,-333.77 33.14,-313.81 33.42,-297.49"/>
<text text-anchor="middle" x="58.85" y="-319.58" font-family="Times New Roman,serif" font-size="14.00">SINGLE</text>
</g>
<!-- 12 -->
<g id="node9" class="node">
<title>12</title>
<ellipse fill="none" stroke="black" cx="37.96" cy="-148.69" rx="31.93" ry="31.93"/>
<text text-anchor="middle" x="37.96" y="-144.49" font-family="Times New Roman,serif" font-size="14.00">C_12</text>
</g>
<!-- 11&#45;&#45;12 -->
<g id="edge16" class="edge">
<title>11&#45;&#45;12</title>
<path fill="none" stroke="black" d="M35.05,-233.37C35.61,-217.04 36.31,-197.09 36.88,-180.76"/>
<text text-anchor="middle" x="61.85" y="-202.85" font-family="Times New Roman,serif" font-size="14.00">SINGLE</text>
</g>
<!-- 12&#45;&#45;13 -->
<g id="edge17" class="edge">
<title>12&#45;&#45;13</title>
<path fill="none" stroke="black" d="M39.06,-116.6C40.18,-105.42 42.28,-92.87 46.19,-81.93 49.13,-73.7 53.62,-65.41 58.28,-58.05"/>
<text text-anchor="middle" x="71.85" y="-86.13" font-family="Times New Roman,serif" font-size="14.00">SINGLE</text>
</g>
<!-- 17 -->
<g id="node12" class="node">
<title>17</title>
<ellipse fill="none" stroke="black" cx="223.96" cy="-265.42" rx="31.93" ry="31.93"/>
<text text-anchor="middle" x="223.96" y="-261.22" font-family="Times New Roman,serif" font-size="14.00">C_17</text>
</g>
<!-- 16&#45;&#45;17 -->
<g id="edge18" class="edge">
<title>16&#45;&#45;17</title>
<path fill="none" stroke="black" d="M219.59,-350.09C220.44,-333.77 221.48,-313.81 222.34,-297.49"/>
<text text-anchor="middle" x="246.85" y="-319.58" font-family="Times New Roman,serif" font-size="14.00">SINGLE</text>
</g>
<!-- 18 -->
<g id="node13" class="node">
<title>18</title>
<ellipse fill="none" stroke="black" cx="226.96" cy="-148.69" rx="31.93" ry="31.93"/>
<text text-anchor="middle" x="226.96" y="-144.49" font-family="Times New Roman,serif" font-size="14.00">C_18</text>
</g>
<!-- 17&#45;&#45;18 -->
<g id="edge19" class="edge">
<title>17&#45;&#45;18</title>
<path fill="none" stroke="black" d="M224.77,-233.37C225.2,-217.04 225.72,-197.09 226.15,-180.76"/>
<text text-anchor="middle" x="250.85" y="-202.85" font-family="Times New Roman,serif" font-size="14.00">SINGLE</text>
</g>
<!-- 18&#45;&#45;19 -->
<g id="edge20" class="edge">
<title>18&#45;&#45;19</title>
<path fill="none" stroke="black" d="M224.14,-116.71C224.01,-105.55 224.89,-92.98 228.19,-81.93 230.72,-73.46 235.14,-65.03 239.86,-57.61"/>
<text text-anchor="middle" x="253.85" y="-86.13" font-family="Times New Roman,serif" font-size="14.00">SINGLE</text>
</g>
<!-- 22&#45;&#45;23 -->
<g id="edge21" class="edge">
<title>22&#45;&#45;23</title>
<path fill="none" stroke="black" d="M349.06,-350.05C349.23,-338.63 350.94,-325.93 356.19,-315.38 362.74,-302.21 374.57,-291.13 385.74,-282.85"/>
<text text-anchor="middle" x="381.85" y="-319.58" font-family="Times New Roman,serif" font-size="14.00">SINGLE</text>
</g>
<!-- 24 -->
<g id="node17" class="node">
<title>24</title>
<ellipse fill="none" stroke="black" cx="412.96" cy="-148.69" rx="31.93" ry="31.93"/>
<text text-anchor="middle" x="412.96" y="-144.49" font-family="Times New Roman,serif" font-size="14.00">C_24</text>
</g>
<!-- 23&#45;&#45;24 -->
<g id="edge22" class="edge">
<title>23&#45;&#45;24</title>
<path fill="none" stroke="black" d="M412.96,-233.37C412.96,-217.04 412.96,-197.09 412.96,-180.76"/>
<text text-anchor="middle" x="437.85" y="-202.85" font-family="Times New Roman,serif" font-size="14.00">SINGLE</text>
</g>
<!-- 25 -->
<g id="node18" class="node">
<title>25</title>
<ellipse fill="none" stroke="black" cx="412.96" cy="-31.96" rx="31.93" ry="31.93"/>
<text text-anchor="middle" x="412.96" y="-27.76" font-family="Times New Roman,serif" font-size="14.00">C_25</text>
</g>
<!-- 24&#45;&#45;25 -->
<g id="edge23" class="edge">
<title>24&#45;&#45;25</title>
<path fill="none" stroke="black" d="M412.96,-116.64C412.96,-100.32 412.96,-80.36 412.96,-64.03"/>
<text text-anchor="middle" x="437.85" y="-86.13" font-family="Times New Roman,serif" font-size="14.00">SINGLE</text>
</g>
<!-- 28&#45;&#45;29 -->
<g id="edge24" class="edge">
<title>28&#45;&#45;29</title>
<path fill="none" stroke="black" d="M532.83,-350.1C533.23,-338.93 534.64,-326.37 538.19,-315.38 540.88,-307.07 545.29,-298.75 549.95,-291.39"/>
<text text-anchor="middle" x="563.85" y="-319.58" font-family="Times New Roman,serif" font-size="14.00">SINGLE</text>
</g>
<!-- 30 -->
<g id="node21" class="node">
<title>30</title>
<ellipse fill="none" stroke="black" cx="568.96" cy="-148.69" rx="31.93" ry="31.93"/>
<text text-anchor="middle" x="568.96" y="-144.49" font-family="Times New Roman,serif" font-size="14.00">C_30</text>
</g>
<!-- 29&#45;&#45;30 -->
<g id="edge25" class="edge">
<title>29&#45;&#45;30</title>
<path fill="none" stroke="black" d="M568.96,-233.37C568.96,-217.04 568.96,-197.09 568.96,-180.76"/>
<text text-anchor="middle" x="593.85" y="-202.85" font-family="Times New Roman,serif" font-size="14.00">SINGLE</text>
</g>
<!-- 31 -->
<g id="node22" class="node">
<title>31</title>
<ellipse fill="none" stroke="black" cx="568.96" cy="-31.96" rx="31.93" ry="31.93"/>
<text text-anchor="middle" x="568.96" y="-27.76" font-family="Times New Roman,serif" font-size="14.00">C_31</text>
</g>
<!-- 30&#45;&#45;31 -->
<g id="edge26" class="edge">
<title>30&#45;&#45;31</title>
<path fill="none" stroke="black" d="M568.96,-116.64C568.96,-100.32 568.96,-80.36 568.96,-64.03"/>
<text text-anchor="middle" x="593.85" y="-86.13" font-family="Times New Roman,serif" font-size="14.00">SINGLE</text>
</g>
<!-- 35 -->
<g id="node24" class="node">
<title>35</title>
<ellipse fill="none" stroke="black" cx="715.96" cy="-382.14" rx="31.93" ry="31.93"/>
<text text-anchor="middle" x="715.96" y="-377.94" font-family="Times New Roman,serif" font-size="14.00">C_35</text>
</g>
<!-- 33&#45;&#45;35 -->
<g id="edge27" class="edge">
<title>33&#45;&#45;35</title>
<path fill="none" stroke="black" d="M944.3,-505.03C873.79,-499.87 735.72,-485.26 706.19,-448.9 697.75,-438.51 698.96,-424.03 702.82,-411.31"/>
<text text-anchor="middle" x="738.85" y="-436.3" font-family="Times New Roman,serif" font-size="14.00">2_SINGLE</text>
</g>
<!-- 38 -->
<g id="node27" class="node">
<title>38</title>
<ellipse fill="none" stroke="black" cx="750.96" cy="-31.96" rx="31.93" ry="31.93"/>
<text text-anchor="middle" x="750.96" y="-27.76" font-family="Times New Roman,serif" font-size="14.00">C_38</text>
</g>
<!-- 33&#45;&#45;38 -->
<g id="edge28" class="edge">
<title>33&#45;&#45;38</title>
<path fill="none" stroke="black" d="M944.6,-501.04C885.5,-489.16 783.96,-457.89 783.96,-383.14 783.96,-383.14 783.96,-383.14 783.96,-147.69 783.96,-117.43 773.23,-84.37 764.01,-61.55"/>
<text text-anchor="middle" x="815.85" y="-261.22" font-family="Times New Roman,serif" font-size="14.00">1_SINGLE</text>
</g>
<!-- 41 -->
<g id="node28" class="node">
<title>41</title>
<ellipse fill="none" stroke="black" cx="889.96" cy="-382.14" rx="31.93" ry="31.93"/>
<text text-anchor="middle" x="889.96" y="-377.94" font-family="Times New Roman,serif" font-size="14.00">C_41</text>
</g>
<!-- 33&#45;&#45;41 -->
<g id="edge29" class="edge">
<title>33&#45;&#45;41</title>
<path fill="none" stroke="black" d="M946.44,-494.74C925.12,-485.6 900.68,-470.95 888.19,-448.9 882.22,-438.37 881.5,-425.28 882.7,-413.57"/>
<text text-anchor="middle" x="920.85" y="-436.3" font-family="Times New Roman,serif" font-size="14.00">1_SINGLE</text>
</g>
<!-- 44 -->
<g id="node31" class="node">
<title>44</title>
<ellipse fill="none" stroke="black" cx="932.96" cy="-31.96" rx="31.93" ry="31.93"/>
<text text-anchor="middle" x="932.96" y="-27.76" font-family="Times New Roman,serif" font-size="14.00">C_44</text>
</g>
<!-- 33&#45;&#45;44 -->
<g id="edge30" class="edge">
<title>33&#45;&#45;44</title>
<path fill="none" stroke="black" d="M976.31,-468.01C971.2,-443.69 965.96,-411.79 965.96,-383.14 965.96,-383.14 965.96,-383.14 965.96,-147.69 965.96,-117.43 955.23,-84.37 946.01,-61.55"/>
<text text-anchor="middle" x="997.85" y="-261.22" font-family="Times New Roman,serif" font-size="14.00">2_SINGLE</text>
</g>
<!-- 47 -->
<g id="node32" class="node">
<title>47</title>
<ellipse fill="none" stroke="black" cx="1025.96" cy="-382.14" rx="31.93" ry="31.93"/>
<text text-anchor="middle" x="1025.96" y="-377.94" font-family="Times New Roman,serif" font-size="14.00">C_47</text>
</g>
<!-- 33&#45;&#45;47 -->
<g id="edge31" class="edge">
<title>33&#45;&#45;47</title>
<path fill="none" stroke="black" d="M998.51,-468.5C1004.28,-450.55 1011.02,-429.59 1016.38,-412.93"/>
<text text-anchor="middle" x="1041.85" y="-436.3" font-family="Times New Roman,serif" font-size="14.00">2_SINGLE</text>
</g>
<!-- 48 -->
<g id="node33" class="node">
<title>48</title>
<ellipse fill="none" stroke="black" cx="1086.96" cy="-265.42" rx="31.93" ry="31.93"/>
<text text-anchor="middle" x="1086.96" y="-261.22" font-family="Times New Roman,serif" font-size="14.00">C_48</text>
</g>
<!-- 33&#45;&#45;48 -->
<g id="edge32" class="edge">
<title>33&#45;&#45;48</title>
<path fill="none" stroke="black" d="M1024.71,-493.03C1044.21,-483.59 1066.16,-469.21 1077.96,-448.9 1105.46,-401.59 1099.98,-335.18 1093.49,-296.89"/>
<text text-anchor="middle" x="1130.85" y="-377.94" font-family="Times New Roman,serif" font-size="14.00">1_SINGLE</text>
</g>
<!-- 53 -->
<g id="node36" class="node">
<title>53</title>
<ellipse fill="none" stroke="black" cx="1207.96" cy="-382.14" rx="31.93" ry="31.93"/>
<text text-anchor="middle" x="1207.96" y="-377.94" font-family="Times New Roman,serif" font-size="14.00">C_53</text>
</g>
<!-- 33&#45;&#45;53 -->
<g id="edge33" class="edge">
<title>33&#45;&#45;53</title>
<path fill="none" stroke="black" d="M1023.68,-490.87C1048.11,-479.73 1080.38,-464.34 1107.96,-448.9 1132.88,-434.96 1138.12,-429.81 1161.96,-414.1 1168.39,-409.87 1175.3,-405.26 1181.75,-400.92"/>
<text text-anchor="middle" x="1167.85" y="-436.3" font-family="Times New Roman,serif" font-size="14.00">1_SINGLE</text>
</g>
<!-- 54 -->
<g id="node37" class="node">
<title>54</title>
<ellipse fill="none" stroke="black" cx="1242.96" cy="-265.42" rx="31.93" ry="31.93"/>
<text text-anchor="middle" x="1242.96" y="-261.22" font-family="Times New Roman,serif" font-size="14.00">C_54</text>
</g>
<!-- 33&#45;&#45;54 -->
<g id="edge34" class="edge">
<title>33&#45;&#45;54</title>
<path fill="none" stroke="black" d="M1027.66,-507.64C1089.73,-505.22 1203.94,-490.07 1248.96,-414.1 1271.53,-376.03 1270.11,-358.88 1261.96,-315.38 1260.67,-308.48 1258.44,-301.3 1255.95,-294.63"/>
<text text-anchor="middle" x="1299.85" y="-377.94" font-family="Times New Roman,serif" font-size="14.00">2_SINGLE</text>
</g>
<!-- 36 -->
<g id="node25" class="node">
<title>36</title>
<ellipse fill="none" stroke="black" cx="715.96" cy="-265.42" rx="31.93" ry="31.93"/>
<text text-anchor="middle" x="715.96" y="-261.22" font-family="Times New Roman,serif" font-size="14.00">C_36</text>
</g>
<!-- 35&#45;&#45;36 -->
<g id="edge35" class="edge">
<title>35&#45;&#45;36</title>
<path fill="none" stroke="black" d="M715.96,-350.09C715.96,-333.77 715.96,-313.81 715.96,-297.49"/>
<text text-anchor="middle" x="740.85" y="-319.58" font-family="Times New Roman,serif" font-size="14.00">SINGLE</text>
</g>
<!-- 37 -->
<g id="node26" class="node">
<title>37</title>
<ellipse fill="none" stroke="black" cx="716.96" cy="-148.69" rx="31.93" ry="31.93"/>
<text text-anchor="middle" x="716.96" y="-144.49" font-family="Times New Roman,serif" font-size="14.00">C_37</text>
</g>
<!-- 36&#45;&#45;37 -->
<g id="edge36" class="edge">
<title>36&#45;&#45;37</title>
<path fill="none" stroke="black" d="M716.23,-233.37C716.38,-217.04 716.55,-197.09 716.69,-180.76"/>
<text text-anchor="middle" x="741.85" y="-202.85" font-family="Times New Roman,serif" font-size="14.00">SINGLE</text>
</g>
<!-- 37&#45;&#45;38 -->
<g id="edge37" class="edge">
<title>37&#45;&#45;38</title>
<path fill="none" stroke="black" d="M715.27,-116.67C715.49,-105.5 716.72,-92.94 720.19,-81.93 722.81,-73.59 727.21,-65.27 731.87,-57.91"/>
<text text-anchor="middle" x="745.85" y="-86.13" font-family="Times New Roman,serif" font-size="14.00">SINGLE</text>
</g>
<!-- 42 -->
<g id="node29" class="node">
<title>42</title>
<ellipse fill="none" stroke="black" cx="897.96" cy="-265.42" rx="31.93" ry="31.93"/>
<text text-anchor="middle" x="897.96" y="-261.22" font-family="Times New Roman,serif" font-size="14.00">C_42</text>
</g>
<!-- 41&#45;&#45;42 -->
<g id="edge38" class="edge">
<title>41&#45;&#45;42</title>
<path fill="none" stroke="black" d="M892.13,-350.09C893.27,-333.77 894.66,-313.81 895.8,-297.49"/>
<text text-anchor="middle" x="919.85" y="-319.58" font-family="Times New Roman,serif" font-size="14.00">SINGLE</text>
</g>
<!-- 43 -->
<g id="node30" class="node">
<title>43</title>
<ellipse fill="none" stroke="black" cx="899.96" cy="-148.69" rx="31.93" ry="31.93"/>
<text text-anchor="middle" x="899.96" y="-144.49" font-family="Times New Roman,serif" font-size="14.00">C_43</text>
</g>
<!-- 42&#45;&#45;43 -->
<g id="edge39" class="edge">
<title>42&#45;&#45;43</title>
<path fill="none" stroke="black" d="M898.5,-233.37C898.79,-217.04 899.14,-197.09 899.42,-180.76"/>
<text text-anchor="middle" x="924.85" y="-202.85" font-family="Times New Roman,serif" font-size="14.00">SINGLE</text>
</g>
<!-- 43&#45;&#45;44 -->
<g id="edge40" class="edge">
<title>43&#45;&#45;44</title>
<path fill="none" stroke="black" d="M897.7,-116.69C897.75,-105.52 898.81,-92.96 902.19,-81.93 904.75,-73.57 909.12,-65.25 913.78,-57.89"/>
<text text-anchor="middle" x="927.85" y="-86.13" font-family="Times New Roman,serif" font-size="14.00">SINGLE</text>
</g>
<!-- 47&#45;&#45;48 -->
<g id="edge41" class="edge">
<title>47&#45;&#45;48</title>
<path fill="none" stroke="black" d="M1023.06,-350.05C1023.23,-338.63 1024.94,-325.93 1030.19,-315.38 1036.74,-302.21 1048.57,-291.13 1059.74,-282.85"/>
<text text-anchor="middle" x="1055.85" y="-319.58" font-family="Times New Roman,serif" font-size="14.00">SINGLE</text>
</g>
<!-- 49 -->
<g id="node34" class="node">
<title>49</title>
<ellipse fill="none" stroke="black" cx="1086.96" cy="-148.69" rx="31.93" ry="31.93"/>
<text text-anchor="middle" x="1086.96" y="-144.49" font-family="Times New Roman,serif" font-size="14.00">C_49</text>
</g>
<!-- 48&#45;&#45;49 -->
<g id="edge42" class="edge">
<title>48&#45;&#45;49</title>
<path fill="none" stroke="black" d="M1086.96,-233.37C1086.96,-217.04 1086.96,-197.09 1086.96,-180.76"/>
<text text-anchor="middle" x="1111.85" y="-202.85" font-family="Times New Roman,serif" font-size="14.00">SINGLE</text>
</g>
<!-- 50 -->
<g id="node35" class="node">
<title>50</title>
<ellipse fill="none" stroke="black" cx="1086.96" cy="-31.96" rx="31.93" ry="31.93"/>
<text text-anchor="middle" x="1086.96" y="-27.76" font-family="Times New Roman,serif" font-size="14.00">C_50</text>
</g>
<!-- 49&#45;&#45;50 -->
<g id="edge43" class="edge">
<title>49&#45;&#45;50</title>
<path fill="none" stroke="black" d="M1086.96,-116.64C1086.96,-100.32 1086.96,-80.36 1086.96,-64.03"/>
<text text-anchor="middle" x="1111.85" y="-86.13" font-family="Times New Roman,serif" font-size="14.00">SINGLE</text>
</g>
<!-- 53&#45;&#45;54 -->
<g id="edge44" class="edge">
<title>53&#45;&#45;54</title>
<path fill="none" stroke="black" d="M1206.83,-350.1C1207.23,-338.93 1208.64,-326.37 1212.19,-315.38 1214.88,-307.07 1219.29,-298.75 1223.95,-291.39"/>
<text text-anchor="middle" x="1237.85" y="-319.58" font-family="Times New Roman,serif" font-size="14.00">SINGLE</text>
</g>
<!-- 55 -->
<g id="node38" class="node">
<title>55</title>
<ellipse fill="none" stroke="black" cx="1242.96" cy="-148.69" rx="31.93" ry="31.93"/>
<text text-anchor="middle" x="1242.96" y="-144.49" font-family="Times New Roman,serif" font-size="14.00">C_55</text>
</g>
<!-- 54&#45;&#45;55 -->
<g id="edge45" class="edge">
<title>54&#45;&#45;55</title>
<path fill="none" stroke="black" d="M1242.96,-233.37C1242.96,-217.04 1242.96,-197.09 1242.96,-180.76"/>
<text text-anchor="middle" x="1267.85" y="-202.85" font-family="Times New Roman,serif" font-size="14.00">SINGLE</text>
</g>
<!-- 56 -->
<g id="node39" class="node">
<title>56</title>
<ellipse fill="none" stroke="black" cx="1242.96" cy="-31.96" rx="31.93" ry="31.93"/>
<text text-anchor="middle" x="1242.96" y="-27.76" font-family="Times New Roman,serif" font-size="14.00">C_56</text>
</g>
<!-- 55&#45;&#45;56 -->
<g id="edge46" class="edge">
<title>55&#45;&#45;56</title>
<path fill="none" stroke="black" d="M1242.96,-116.64C1242.96,-100.32 1242.96,-80.36 1242.96,-64.03"/>
<text text-anchor="middle" x="1267.85" y="-86.13" font-family="Times New Roman,serif" font-size="14.00">SINGLE</text>
</g>
</g>
</svg>
