<?xml version="1.0" encoding="UTF-8" standalone="no"?>
<!DOCTYPE svg PUBLIC "-//W3C//DTD SVG 1.1//EN"
 "http://www.w3.org/Graphics/SVG/1.1/DTD/svg11.dtd">
<!-- Generated by graphviz version 2.50.0 (0)
 -->
<!-- Title: G Pages: 1 -->
<svg width="872pt" height="1373pt"
 viewBox="0.00 0.00 871.74 1373.05" xmlns="http://www.w3.org/2000/svg" xmlns:xlink="http://www.w3.org/1999/xlink">
<g id="graph0" class="graph" transform="scale(1 1) rotate(0) translate(4 1369.05)">
<title>G</title>
<polygon fill="white" stroke="transparent" points="-4,4 -4,-1369.05 867.74,-1369.05 867.74,4 -4,4"/>
<!-- 0 -->
<g id="node1" class="node">
<title>0</title>
<ellipse fill="none" stroke="black" cx="232.96" cy="-1334.7" rx="27.84" ry="27.84"/>
<text text-anchor="middle" x="232.96" y="-1330.5" font-family="Times New Roman,serif" font-size="14.00">H_0</text>
</g>
<!-- 8 -->
<g id="node7" class="node">
<title>8</title>
<ellipse fill="none" stroke="black" cx="232.96" cy="-1209.94" rx="36.57" ry="36.57"/>
<text text-anchor="middle" x="232.96" y="-1205.74" font-family="Times New Roman,serif" font-size="14.00">[$0]_8</text>
</g>
<!-- 0&#45;&#45;8 -->
<g id="edge1" class="edge">
<title>0&#45;&#45;8</title>
<path fill="none" stroke="black" d="M232.96,-1306.76C232.96,-1289.25 232.96,-1266.23 232.96,-1247.13"/>
<text text-anchor="middle" x="264.85" y="-1273.75" font-family="Times New Roman,serif" font-size="14.00">1_SINGLE</text>
</g>
<!-- 2 -->
<g id="node2" class="node">
<title>2</title>
<ellipse fill="none" stroke="black" cx="434.96" cy="-1334.7" rx="30.2" ry="30.2"/>
<text text-anchor="middle" x="434.96" y="-1330.5" font-family="Times New Roman,serif" font-size="14.00">Es_2</text>
</g>
<!-- 2&#45;&#45;8 -->
<g id="edge2" class="edge">
<title>2&#45;&#45;8</title>
<path fill="none" stroke="black" d="M409.38,-1318.15C372.33,-1295.63 303.82,-1254 263.95,-1229.77"/>
<text text-anchor="middle" x="384.85" y="-1273.75" font-family="Times New Roman,serif" font-size="14.00">2_SINGLE</text>
</g>
<!-- 41 -->
<g id="node36" class="node">
<title>41</title>
<ellipse fill="none" stroke="black" cx="522.96" cy="-1209.94" rx="41.72" ry="41.72"/>
<text text-anchor="middle" x="522.96" y="-1205.74" font-family="Times New Roman,serif" font-size="14.00">[$0]_41</text>
</g>
<!-- 2&#45;&#45;41 -->
<g id="edge3" class="edge">
<title>2&#45;&#45;41</title>
<path fill="none" stroke="black" d="M452.05,-1309.26C460.48,-1297.26 470.82,-1282.61 480.19,-1269.55 486.14,-1261.26 492.6,-1252.34 498.66,-1244.03"/>
<text text-anchor="middle" x="512.85" y="-1273.75" font-family="Times New Roman,serif" font-size="14.00">1_SINGLE</text>
</g>
<!-- 4 -->
<g id="node3" class="node">
<title>4</title>
<ellipse fill="none" stroke="black" cx="754.96" cy="-1334.7" rx="27.27" ry="27.27"/>
<text text-anchor="middle" x="754.96" y="-1330.5" font-family="Times New Roman,serif" font-size="14.00">C_4</text>
</g>
<!-- 5 -->
<g id="node4" class="node">
<title>5</title>
<ellipse fill="none" stroke="black" cx="754.96" cy="-1209.94" rx="27.27" ry="27.27"/>
<text text-anchor="middle" x="754.96" y="-1205.74" font-family="Times New Roman,serif" font-size="14.00">C_5</text>
</g>
<!-- 4&#45;&#45;5 -->
<g id="edge5" class="edge">
<title>4&#45;&#45;5</title>
<path fill="none" stroke="black" d="M754.96,-1307.36C754.96,-1286.65 754.96,-1257.93 754.96,-1237.23"/>
<text text-anchor="middle" x="779.85" y="-1273.75" font-family="Times New Roman,serif" font-size="14.00">SINGLE</text>
</g>
<!-- 7 -->
<g id="node6" class="node">
<title>7</title>
<ellipse fill="none" stroke="black" cx="827.96" cy="-1209.94" rx="27.27" ry="27.27"/>
<text text-anchor="middle" x="827.96" y="-1205.74" font-family="Times New Roman,serif" font-size="14.00">C_7</text>
</g>
<!-- 4&#45;&#45;7 -->
<g id="edge4" class="edge">
<title>4&#45;&#45;7</title>
<path fill="none" stroke="black" d="M776.66,-1318.04C786.86,-1309.67 798.41,-1298.58 805.96,-1286.35 815.28,-1271.26 820.81,-1252.05 823.99,-1236.8"/>
<text text-anchor="middle" x="838.85" y="-1273.75" font-family="Times New Roman,serif" font-size="14.00">SINGLE</text>
</g>
<!-- 4&#45;&#45;41 -->
<g id="edge6" class="edge">
<title>4&#45;&#45;41</title>
<path fill="none" stroke="black" d="M731.01,-1321.02C690.37,-1299.52 607.68,-1255.76 559.69,-1230.37"/>
<text text-anchor="middle" x="691.85" y="-1273.75" font-family="Times New Roman,serif" font-size="14.00">2_SINGLE</text>
</g>
<!-- 6 -->
<g id="node5" class="node">
<title>6</title>
<ellipse fill="none" stroke="black" cx="784.96" cy="-1083.56" rx="27.27" ry="27.27"/>
<text text-anchor="middle" x="784.96" y="-1079.36" font-family="Times New Roman,serif" font-size="14.00">C_6</text>
</g>
<!-- 5&#45;&#45;6 -->
<g id="edge7" class="edge">
<title>5&#45;&#45;6</title>
<path fill="none" stroke="black" d="M761.11,-1183.47C766.28,-1162.01 773.65,-1131.45 778.83,-1110"/>
<text text-anchor="middle" x="797.85" y="-1137.73" font-family="Times New Roman,serif" font-size="14.00">SINGLE</text>
</g>
<!-- 10 -->
<g id="node8" class="node">
<title>10</title>
<ellipse fill="none" stroke="black" cx="55.96" cy="-1083.56" rx="31.93" ry="31.93"/>
<text text-anchor="middle" x="55.96" y="-1079.36" font-family="Times New Roman,serif" font-size="14.00">C_10</text>
</g>
<!-- 8&#45;&#45;10 -->
<g id="edge8" class="edge">
<title>8&#45;&#45;10</title>
<path fill="none" stroke="black" d="M195.88,-1208.86C153.26,-1206.52 84.98,-1195.42 52.19,-1150.33 44.79,-1140.15 44.45,-1126.58 46.46,-1114.41"/>
<text text-anchor="middle" x="84.85" y="-1137.73" font-family="Times New Roman,serif" font-size="14.00">2_SINGLE</text>
</g>
<!-- 11 -->
<g id="node9" class="node">
<title>11</title>
<ellipse fill="none" stroke="black" cx="63.96" cy="-966.84" rx="31.93" ry="31.93"/>
<text text-anchor="middle" x="63.96" y="-962.64" font-family="Times New Roman,serif" font-size="14.00">C_11</text>
</g>
<!-- 8&#45;&#45;11 -->
<g id="edge9" class="edge">
<title>8&#45;&#45;11</title>
<path fill="none" stroke="black" d="M203.72,-1187.13C182.71,-1169.93 155.35,-1144.14 139.19,-1115.53 116.98,-1076.18 137.54,-1055.94 114.96,-1016.8 108.4,-1005.42 98.41,-995 89.01,-986.73"/>
<text text-anchor="middle" x="171.85" y="-1079.36" font-family="Times New Roman,serif" font-size="14.00">1_SINGLE</text>
</g>
<!-- 26 -->
<g id="node22" class="node">
<title>26</title>
<ellipse fill="none" stroke="black" cx="243.96" cy="-1083.56" rx="31.93" ry="31.93"/>
<text text-anchor="middle" x="243.96" y="-1079.36" font-family="Times New Roman,serif" font-size="14.00">C_26</text>
</g>
<!-- 8&#45;&#45;26 -->
<g id="edge10" class="edge">
<title>8&#45;&#45;26</title>
<path fill="none" stroke="black" d="M232.23,-1172.8C232.32,-1160.33 232.82,-1146.29 234.19,-1133.53 234.84,-1127.49 235.86,-1121.1 237.01,-1114.99"/>
<text text-anchor="middle" x="266.85" y="-1137.73" font-family="Times New Roman,serif" font-size="14.00">1_SINGLE</text>
</g>
<!-- 27 -->
<g id="node23" class="node">
<title>27</title>
<ellipse fill="none" stroke="black" cx="261.96" cy="-966.84" rx="31.93" ry="31.93"/>
<text text-anchor="middle" x="261.96" y="-962.64" font-family="Times New Roman,serif" font-size="14.00">C_27</text>
</g>
<!-- 8&#45;&#45;27 -->
<g id="edge11" class="edge">
<title>8&#45;&#45;27</title>
<path fill="none" stroke="black" d="M263.93,-1189.71C277.02,-1179.74 290.86,-1166.29 297.96,-1150.33 322.08,-1096.1 316.46,-1073.19 297.96,-1016.8 294.94,-1007.58 289.44,-998.66 283.63,-991.02"/>
<text text-anchor="middle" x="346.85" y="-1079.36" font-family="Times New Roman,serif" font-size="14.00">2_SINGLE</text>
</g>
<!-- 10&#45;&#45;11 -->
<g id="edge12" class="edge">
<title>10&#45;&#45;11</title>
<path fill="none" stroke="black" d="M58.13,-1051.52C59.27,-1035.19 60.66,-1015.24 61.8,-998.91"/>
<text text-anchor="middle" x="85.85" y="-1021" font-family="Times New Roman,serif" font-size="14.00">SINGLE</text>
</g>
<!-- 12 -->
<g id="node10" class="node">
<title>12</title>
<ellipse fill="none" stroke="black" cx="31.96" cy="-850.11" rx="31.93" ry="31.93"/>
<text text-anchor="middle" x="31.96" y="-845.91" font-family="Times New Roman,serif" font-size="14.00">C_12</text>
</g>
<!-- 11&#45;&#45;12 -->
<g id="edge13" class="edge">
<title>11&#45;&#45;12</title>
<path fill="none" stroke="black" d="M47.55,-939.19C43.89,-932.16 40.44,-924.42 38.19,-916.87 34.92,-905.88 33.25,-893.44 32.44,-882.37"/>
<text text-anchor="middle" x="63.85" y="-904.27" font-family="Times New Roman,serif" font-size="14.00">SINGLE</text>
</g>
<!-- 13 -->
<g id="node11" class="node">
<title>13</title>
<ellipse fill="none" stroke="black" cx="113.96" cy="-850.11" rx="31.93" ry="31.93"/>
<text text-anchor="middle" x="113.96" y="-845.91" font-family="Times New Roman,serif" font-size="14.00">C_13</text>
</g>
<!-- 11&#45;&#45;13 -->
<g id="edge14" class="edge">
<title>11&#45;&#45;13</title>
<path fill="none" stroke="black" d="M78.06,-938.05C81.41,-931.18 84.9,-923.8 87.96,-916.87 93.17,-905.08 98.48,-891.9 102.94,-880.45"/>
<text text-anchor="middle" x="119.85" y="-904.27" font-family="Times New Roman,serif" font-size="14.00">SINGLE</text>
</g>
<!-- 14 -->
<g id="node12" class="node">
<title>14</title>
<ellipse fill="none" stroke="black" cx="36.96" cy="-732.85" rx="32.49" ry="32.49"/>
<text text-anchor="middle" x="36.96" y="-728.65" font-family="Times New Roman,serif" font-size="14.00">O_14</text>
</g>
<!-- 13&#45;&#45;14 -->
<g id="edge15" class="edge">
<title>13&#45;&#45;14</title>
<path fill="none" stroke="black" d="M88.82,-830.17C75.44,-819.64 60.8,-807.26 56.19,-800.15 49.41,-789.69 44.97,-776.79 42.08,-765.15"/>
<text text-anchor="middle" x="85.35" y="-787.55" font-family="Times New Roman,serif" font-size="14.00">DOUBLE</text>
</g>
<!-- 15 -->
<g id="node13" class="node">
<title>15</title>
<ellipse fill="none" stroke="black" cx="119.96" cy="-732.85" rx="32.49" ry="32.49"/>
<text text-anchor="middle" x="119.96" y="-728.65" font-family="Times New Roman,serif" font-size="14.00">O_15</text>
</g>
<!-- 13&#45;&#45;15 -->
<g id="edge16" class="edge">
<title>13&#45;&#45;15</title>
<path fill="none" stroke="black" d="M115.59,-817.92C116.43,-801.65 117.47,-781.8 118.32,-765.47"/>
<text text-anchor="middle" x="142.85" y="-787.55" font-family="Times New Roman,serif" font-size="14.00">SINGLE</text>
</g>
<!-- 16 -->
<g id="node14" class="node">
<title>16</title>
<ellipse fill="none" stroke="black" cx="119.96" cy="-615.59" rx="31.93" ry="31.93"/>
<text text-anchor="middle" x="119.96" y="-611.39" font-family="Times New Roman,serif" font-size="14.00">C_16</text>
</g>
<!-- 15&#45;&#45;16 -->
<g id="edge17" class="edge">
<title>15&#45;&#45;16</title>
<path fill="none" stroke="black" d="M119.96,-700.05C119.96,-683.79 119.96,-664.08 119.96,-647.89"/>
<text text-anchor="middle" x="144.85" y="-669.76" font-family="Times New Roman,serif" font-size="14.00">SINGLE</text>
</g>
<!-- 17 -->
<g id="node15" class="node">
<title>17</title>
<ellipse fill="none" stroke="black" cx="119.96" cy="-498.87" rx="31.93" ry="31.93"/>
<text text-anchor="middle" x="119.96" y="-494.67" font-family="Times New Roman,serif" font-size="14.00">C_17</text>
</g>
<!-- 16&#45;&#45;17 -->
<g id="edge18" class="edge">
<title>16&#45;&#45;17</title>
<path fill="none" stroke="black" d="M119.96,-583.55C119.96,-567.22 119.96,-547.27 119.96,-530.94"/>
<text text-anchor="middle" x="144.85" y="-553.03" font-family="Times New Roman,serif" font-size="14.00">SINGLE</text>
</g>
<!-- 18 -->
<g id="node16" class="node">
<title>18</title>
<ellipse fill="none" stroke="black" cx="52.96" cy="-382.14" rx="31.93" ry="31.93"/>
<text text-anchor="middle" x="52.96" y="-377.94" font-family="Times New Roman,serif" font-size="14.00">C_18</text>
</g>
<!-- 17&#45;&#45;18 -->
<g id="edge19" class="edge">
<title>17&#45;&#45;18</title>
<path fill="none" stroke="black" d="M96.14,-477.26C87.91,-469.12 79.26,-459.25 73.19,-448.9 66.91,-438.19 62.39,-425.33 59.24,-413.83"/>
<text text-anchor="middle" x="98.85" y="-436.3" font-family="Times New Roman,serif" font-size="14.00">SINGLE</text>
</g>
<!-- 20 -->
<g id="node18" class="node">
<title>20</title>
<ellipse fill="none" stroke="black" cx="134.96" cy="-382.14" rx="31.93" ry="31.93"/>
<text text-anchor="middle" x="134.96" y="-377.94" font-family="Times New Roman,serif" font-size="14.00">C_20</text>
</g>
<!-- 17&#45;&#45;20 -->
<g id="edge20" class="edge">
<title>17&#45;&#45;20</title>
<path fill="none" stroke="black" d="M123.98,-467.12C126.13,-450.66 128.78,-430.44 130.93,-413.97"/>
<text text-anchor="middle" x="153.85" y="-436.3" font-family="Times New Roman,serif" font-size="14.00">SINGLE</text>
</g>
<!-- 19 -->
<g id="node17" class="node">
<title>19</title>
<ellipse fill="none" stroke="black" cx="52.96" cy="-265.42" rx="31.93" ry="31.93"/>
<text text-anchor="middle" x="52.96" y="-261.22" font-family="Times New Roman,serif" font-size="14.00">C_19</text>
</g>
<!-- 18&#45;&#45;19 -->
<g id="edge21" class="edge">
<title>18&#45;&#45;19</title>
<path fill="none" stroke="black" d="M52.96,-350.09C52.96,-333.77 52.96,-313.81 52.96,-297.49"/>
<text text-anchor="middle" x="77.85" y="-319.58" font-family="Times New Roman,serif" font-size="14.00">SINGLE</text>
</g>
<!-- 21 -->
<g id="node19" class="node">
<title>21</title>
<ellipse fill="none" stroke="black" cx="134.96" cy="-265.42" rx="31.93" ry="31.93"/>
<text text-anchor="middle" x="134.96" y="-261.22" font-family="Times New Roman,serif" font-size="14.00">C_21</text>
</g>
<!-- 20&#45;&#45;21 -->
<g id="edge22" class="edge">
<title>20&#45;&#45;21</title>
<path fill="none" stroke="black" d="M134.96,-350.09C134.96,-333.77 134.96,-313.81 134.96,-297.49"/>
<text text-anchor="middle" x="159.85" y="-319.58" font-family="Times New Roman,serif" font-size="14.00">SINGLE</text>
</g>
<!-- 22 -->
<g id="node20" class="node">
<title>22</title>
<ellipse fill="none" stroke="black" cx="134.96" cy="-148.69" rx="31.93" ry="31.93"/>
<text text-anchor="middle" x="134.96" y="-144.49" font-family="Times New Roman,serif" font-size="14.00">C_22</text>
</g>
<!-- 21&#45;&#45;22 -->
<g id="edge23" class="edge">
<title>21&#45;&#45;22</title>
<path fill="none" stroke="black" d="M134.96,-233.37C134.96,-217.04 134.96,-197.09 134.96,-180.76"/>
<text text-anchor="middle" x="159.85" y="-202.85" font-family="Times New Roman,serif" font-size="14.00">SINGLE</text>
</g>
<!-- 23 -->
<g id="node21" class="node">
<title>23</title>
<ellipse fill="none" stroke="black" cx="134.96" cy="-31.96" rx="31.93" ry="31.93"/>
<text text-anchor="middle" x="134.96" y="-27.76" font-family="Times New Roman,serif" font-size="14.00">C_23</text>
</g>
<!-- 22&#45;&#45;23 -->
<g id="edge24" class="edge">
<title>22&#45;&#45;23</title>
<path fill="none" stroke="black" d="M134.96,-116.64C134.96,-100.32 134.96,-80.36 134.96,-64.03"/>
<text text-anchor="middle" x="159.85" y="-86.13" font-family="Times New Roman,serif" font-size="14.00">SINGLE</text>
</g>
<!-- 26&#45;&#45;27 -->
<g id="edge25" class="edge">
<title>26&#45;&#45;27</title>
<path fill="none" stroke="black" d="M244.63,-1051.3C245.22,-1040.33 246.28,-1027.96 248.19,-1016.8 249.26,-1010.53 250.82,-1003.92 252.51,-997.65"/>
<text text-anchor="middle" x="273.85" y="-1021" font-family="Times New Roman,serif" font-size="14.00">SINGLE</text>
</g>
<!-- 28 -->
<g id="node24" class="node">
<title>28</title>
<ellipse fill="none" stroke="black" cx="196.96" cy="-850.11" rx="31.93" ry="31.93"/>
<text text-anchor="middle" x="196.96" y="-845.91" font-family="Times New Roman,serif" font-size="14.00">C_28</text>
</g>
<!-- 27&#45;&#45;28 -->
<g id="edge26" class="edge">
<title>27&#45;&#45;28</title>
<path fill="none" stroke="black" d="M238.11,-944.71C230.2,-936.67 221.95,-926.98 216.19,-916.87 210.06,-906.13 205.74,-893.26 202.77,-881.77"/>
<text text-anchor="middle" x="241.85" y="-904.27" font-family="Times New Roman,serif" font-size="14.00">SINGLE</text>
</g>
<!-- 29 -->
<g id="node25" class="node">
<title>29</title>
<ellipse fill="none" stroke="black" cx="278.96" cy="-850.11" rx="31.93" ry="31.93"/>
<text text-anchor="middle" x="278.96" y="-845.91" font-family="Times New Roman,serif" font-size="14.00">C_29</text>
</g>
<!-- 27&#45;&#45;29 -->
<g id="edge27" class="edge">
<title>27&#45;&#45;29</title>
<path fill="none" stroke="black" d="M266.52,-935.09C268.96,-918.63 271.95,-898.41 274.39,-881.94"/>
<text text-anchor="middle" x="296.85" y="-904.27" font-family="Times New Roman,serif" font-size="14.00">SINGLE</text>
</g>
<!-- 30 -->
<g id="node26" class="node">
<title>30</title>
<ellipse fill="none" stroke="black" cx="212.96" cy="-732.85" rx="32.49" ry="32.49"/>
<text text-anchor="middle" x="212.96" y="-728.65" font-family="Times New Roman,serif" font-size="14.00">O_30</text>
</g>
<!-- 29&#45;&#45;30 -->
<g id="edge28" class="edge">
<title>29&#45;&#45;30</title>
<path fill="none" stroke="black" d="M253.32,-830.98C243.39,-822.68 232.84,-812.04 226.19,-800.15 220.29,-789.6 217,-776.8 215.17,-765.28"/>
<text text-anchor="middle" x="255.35" y="-787.55" font-family="Times New Roman,serif" font-size="14.00">DOUBLE</text>
</g>
<!-- 31 -->
<g id="node27" class="node">
<title>31</title>
<ellipse fill="none" stroke="black" cx="295.96" cy="-732.85" rx="32.49" ry="32.49"/>
<text text-anchor="middle" x="295.96" y="-728.65" font-family="Times New Roman,serif" font-size="14.00">O_31</text>
</g>
<!-- 29&#45;&#45;31 -->
<g id="edge29" class="edge">
<title>29&#45;&#45;31</title>
<path fill="none" stroke="black" d="M283.52,-818.22C285.94,-801.82 288.91,-781.7 291.34,-765.23"/>
<text text-anchor="middle" x="313.85" y="-787.55" font-family="Times New Roman,serif" font-size="14.00">SINGLE</text>
</g>
<!-- 32 -->
<g id="node28" class="node">
<title>32</title>
<ellipse fill="none" stroke="black" cx="295.96" cy="-615.59" rx="31.93" ry="31.93"/>
<text text-anchor="middle" x="295.96" y="-611.39" font-family="Times New Roman,serif" font-size="14.00">C_32</text>
</g>
<!-- 31&#45;&#45;32 -->
<g id="edge30" class="edge">
<title>31&#45;&#45;32</title>
<path fill="none" stroke="black" d="M295.96,-700.05C295.96,-683.79 295.96,-664.08 295.96,-647.89"/>
<text text-anchor="middle" x="320.85" y="-669.76" font-family="Times New Roman,serif" font-size="14.00">SINGLE</text>
</g>
<!-- 33 -->
<g id="node29" class="node">
<title>33</title>
<ellipse fill="none" stroke="black" cx="295.96" cy="-498.87" rx="31.93" ry="31.93"/>
<text text-anchor="middle" x="295.96" y="-494.67" font-family="Times New Roman,serif" font-size="14.00">C_33</text>
</g>
<!-- 32&#45;&#45;33 -->
<g id="edge31" class="edge">
<title>32&#45;&#45;33</title>
<path fill="none" stroke="black" d="M295.96,-583.55C295.96,-567.22 295.96,-547.27 295.96,-530.94"/>
<text text-anchor="middle" x="320.85" y="-553.03" font-family="Times New Roman,serif" font-size="14.00">SINGLE</text>
</g>
<!-- 34 -->
<g id="node30" class="node">
<title>34</title>
<ellipse fill="none" stroke="black" cx="231.96" cy="-382.14" rx="31.93" ry="31.93"/>
<text text-anchor="middle" x="231.96" y="-377.94" font-family="Times New Roman,serif" font-size="14.00">C_34</text>
</g>
<!-- 33&#45;&#45;34 -->
<g id="edge32" class="edge">
<title>33&#45;&#45;34</title>
<path fill="none" stroke="black" d="M272.03,-476.79C264.11,-468.75 255.88,-459.05 250.19,-448.9 244.16,-438.16 240.03,-425.29 237.24,-413.8"/>
<text text-anchor="middle" x="275.85" y="-436.3" font-family="Times New Roman,serif" font-size="14.00">SINGLE</text>
</g>
<!-- 36 -->
<g id="node32" class="node">
<title>36</title>
<ellipse fill="none" stroke="black" cx="313.96" cy="-382.14" rx="31.93" ry="31.93"/>
<text text-anchor="middle" x="313.96" y="-377.94" font-family="Times New Roman,serif" font-size="14.00">C_36</text>
</g>
<!-- 33&#45;&#45;36 -->
<g id="edge33" class="edge">
<title>33&#45;&#45;36</title>
<path fill="none" stroke="black" d="M300.79,-467.12C303.37,-450.66 306.54,-430.44 309.13,-413.97"/>
<text text-anchor="middle" x="331.85" y="-436.3" font-family="Times New Roman,serif" font-size="14.00">SINGLE</text>
</g>
<!-- 35 -->
<g id="node31" class="node">
<title>35</title>
<ellipse fill="none" stroke="black" cx="231.96" cy="-265.42" rx="31.93" ry="31.93"/>
<text text-anchor="middle" x="231.96" y="-261.22" font-family="Times New Roman,serif" font-size="14.00">C_35</text>
</g>
<!-- 34&#45;&#45;35 -->
<g id="edge34" class="edge">
<title>34&#45;&#45;35</title>
<path fill="none" stroke="black" d="M231.96,-350.09C231.96,-333.77 231.96,-313.81 231.96,-297.49"/>
<text text-anchor="middle" x="256.85" y="-319.58" font-family="Times New Roman,serif" font-size="14.00">SINGLE</text>
</g>
<!-- 37 -->
<g id="node33" class="node">
<title>37</title>
<ellipse fill="none" stroke="black" cx="313.96" cy="-265.42" rx="31.93" ry="31.93"/>
<text text-anchor="middle" x="313.96" y="-261.22" font-family="Times New Roman,serif" font-size="14.00">C_37</text>
</g>
<!-- 36&#45;&#45;37 -->
<g id="edge35" class="edge">
<title>36&#45;&#45;37</title>
<path fill="none" stroke="black" d="M313.96,-350.09C313.96,-333.77 313.96,-313.81 313.96,-297.49"/>
<text text-anchor="middle" x="338.85" y="-319.58" font-family="Times New Roman,serif" font-size="14.00">SINGLE</text>
</g>
<!-- 38 -->
<g id="node34" class="node">
<title>38</title>
<ellipse fill="none" stroke="black" cx="313.96" cy="-148.69" rx="31.93" ry="31.93"/>
<text text-anchor="middle" x="313.96" y="-144.49" font-family="Times New Roman,serif" font-size="14.00">C_38</text>
</g>
<!-- 37&#45;&#45;38 -->
<g id="edge36" class="edge">
<title>37&#45;&#45;38</title>
<path fill="none" stroke="black" d="M313.96,-233.37C313.96,-217.04 313.96,-197.09 313.96,-180.76"/>
<text text-anchor="middle" x="338.85" y="-202.85" font-family="Times New Roman,serif" font-size="14.00">SINGLE</text>
</g>
<!-- 39 -->
<g id="node35" class="node">
<title>39</title>
<ellipse fill="none" stroke="black" cx="313.96" cy="-31.96" rx="31.93" ry="31.93"/>
<text text-anchor="middle" x="313.96" y="-27.76" font-family="Times New Roman,serif" font-size="14.00">C_39</text>
</g>
<!-- 38&#45;&#45;39 -->
<g id="edge37" class="edge">
<title>38&#45;&#45;39</title>
<path fill="none" stroke="black" d="M313.96,-116.64C313.96,-100.32 313.96,-80.36 313.96,-64.03"/>
<text text-anchor="middle" x="338.85" y="-86.13" font-family="Times New Roman,serif" font-size="14.00">SINGLE</text>
</g>
<!-- 43 -->
<g id="node37" class="node">
<title>43</title>
<ellipse fill="none" stroke="black" cx="425.96" cy="-1083.56" rx="31.93" ry="31.93"/>
<text text-anchor="middle" x="425.96" y="-1079.36" font-family="Times New Roman,serif" font-size="14.00">C_43</text>
</g>
<!-- 41&#45;&#45;43 -->
<g id="edge38" class="edge">
<title>41&#45;&#45;43</title>
<path fill="none" stroke="black" d="M482.89,-1198.21C458.99,-1189.52 430.57,-1174.62 416.19,-1150.33 409.67,-1139.3 410.64,-1125.47 413.83,-1113.34"/>
<text text-anchor="middle" x="448.85" y="-1137.73" font-family="Times New Roman,serif" font-size="14.00">2_SINGLE</text>
</g>
<!-- 44 -->
<g id="node38" class="node">
<title>44</title>
<ellipse fill="none" stroke="black" cx="490.96" cy="-966.84" rx="31.93" ry="31.93"/>
<text text-anchor="middle" x="490.96" y="-962.64" font-family="Times New Roman,serif" font-size="14.00">C_44</text>
</g>
<!-- 41&#45;&#45;44 -->
<g id="edge39" class="edge">
<title>41&#45;&#45;44</title>
<path fill="none" stroke="black" d="M513.38,-1169.13C509.71,-1152.63 505.79,-1133.24 503.19,-1115.53 497.31,-1075.43 494.04,-1028.77 492.39,-998.8"/>
<text text-anchor="middle" x="535.85" y="-1079.36" font-family="Times New Roman,serif" font-size="14.00">1_SINGLE</text>
</g>
<!-- 53 -->
<g id="node45" class="node">
<title>53</title>
<ellipse fill="none" stroke="black" cx="607.96" cy="-1083.56" rx="31.93" ry="31.93"/>
<text text-anchor="middle" x="607.96" y="-1079.36" font-family="Times New Roman,serif" font-size="14.00">C_53</text>
</g>
<!-- 41&#45;&#45;53 -->
<g id="edge40" class="edge">
<title>41&#45;&#45;53</title>
<path fill="none" stroke="black" d="M546.19,-1174.95C560.05,-1154.67 577.38,-1129.31 590.16,-1110.62"/>
<text text-anchor="middle" x="605.85" y="-1137.73" font-family="Times New Roman,serif" font-size="14.00">1_SINGLE</text>
</g>
<!-- 54 -->
<g id="node46" class="node">
<title>54</title>
<ellipse fill="none" stroke="black" cx="641.96" cy="-966.84" rx="31.93" ry="31.93"/>
<text text-anchor="middle" x="641.96" y="-962.64" font-family="Times New Roman,serif" font-size="14.00">C_54</text>
</g>
<!-- 41&#45;&#45;54 -->
<g id="edge41" class="edge">
<title>41&#45;&#45;54</title>
<path fill="none" stroke="black" d="M563.15,-1199.11C589.52,-1190.58 622.58,-1175.51 641.96,-1150.33 678.56,-1102.77 673.53,-1075.68 661.96,-1016.8 660.6,-1009.86 658.25,-1002.67 655.63,-996"/>
<text text-anchor="middle" x="702.85" y="-1079.36" font-family="Times New Roman,serif" font-size="14.00">2_SINGLE</text>
</g>
<!-- 43&#45;&#45;44 -->
<g id="edge42" class="edge">
<title>43&#45;&#45;44</title>
<path fill="none" stroke="black" d="M422.87,-1051.71C422.99,-1040.2 424.71,-1027.36 430.19,-1016.8 437.49,-1002.73 450.81,-991.29 463.12,-983.02"/>
<text text-anchor="middle" x="455.85" y="-1021" font-family="Times New Roman,serif" font-size="14.00">SINGLE</text>
</g>
<!-- 45 -->
<g id="node39" class="node">
<title>45</title>
<ellipse fill="none" stroke="black" cx="490.96" cy="-850.11" rx="31.93" ry="31.93"/>
<text text-anchor="middle" x="490.96" y="-845.91" font-family="Times New Roman,serif" font-size="14.00">C_45</text>
</g>
<!-- 44&#45;&#45;45 -->
<g id="edge43" class="edge">
<title>44&#45;&#45;45</title>
<path fill="none" stroke="black" d="M490.96,-934.79C490.96,-918.47 490.96,-898.51 490.96,-882.18"/>
<text text-anchor="middle" x="515.85" y="-904.27" font-family="Times New Roman,serif" font-size="14.00">SINGLE</text>
</g>
<!-- 46 -->
<g id="node40" class="node">
<title>46</title>
<ellipse fill="none" stroke="black" cx="402.96" cy="-732.85" rx="31.93" ry="31.93"/>
<text text-anchor="middle" x="402.96" y="-728.65" font-family="Times New Roman,serif" font-size="14.00">C_46</text>
</g>
<!-- 45&#45;&#45;46 -->
<g id="edge44" class="edge">
<title>45&#45;&#45;46</title>
<path fill="none" stroke="black" d="M460.53,-839.91C441.48,-832.44 418.33,-819.86 406.29,-800.15 399.93,-789.72 398.26,-776.57 398.5,-764.72"/>
<text text-anchor="middle" x="444.3" y="-787.55" font-family="Times New Roman,serif" font-size="14.00">AROMATIC</text>
</g>
<!-- 50 -->
<g id="node44" class="node">
<title>50</title>
<ellipse fill="none" stroke="black" cx="448.96" cy="-265.42" rx="31.93" ry="31.93"/>
<text text-anchor="middle" x="448.96" y="-261.22" font-family="Times New Roman,serif" font-size="14.00">C_50</text>
</g>
<!-- 45&#45;&#45;50 -->
<g id="edge45" class="edge">
<title>45&#45;&#45;50</title>
<path fill="none" stroke="black" d="M492.64,-817.81C493.73,-794.64 494.96,-762.28 494.96,-733.85 494.96,-733.85 494.96,-733.85 494.96,-381.14 494.96,-351.26 492.44,-342.97 480.96,-315.38 477.53,-307.13 472.68,-298.76 467.78,-291.34"/>
<text text-anchor="middle" x="532.3" y="-553.03" font-family="Times New Roman,serif" font-size="14.00">AROMATIC</text>
</g>
<!-- 47 -->
<g id="node41" class="node">
<title>47</title>
<ellipse fill="none" stroke="black" cx="398.96" cy="-615.59" rx="31.93" ry="31.93"/>
<text text-anchor="middle" x="398.96" y="-611.39" font-family="Times New Roman,serif" font-size="14.00">C_47</text>
</g>
<!-- 46&#45;&#45;47 -->
<g id="edge46" class="edge">
<title>46&#45;&#45;47</title>
<path fill="none" stroke="black" d="M401.88,-700.66C401.31,-684.26 400.62,-664.21 400.05,-647.81"/>
<text text-anchor="middle" x="439.3" y="-669.76" font-family="Times New Roman,serif" font-size="14.00">AROMATIC</text>
</g>
<!-- 48 -->
<g id="node42" class="node">
<title>48</title>
<ellipse fill="none" stroke="black" cx="397.96" cy="-498.87" rx="31.93" ry="31.93"/>
<text text-anchor="middle" x="397.96" y="-494.67" font-family="Times New Roman,serif" font-size="14.00">C_48</text>
</g>
<!-- 47&#45;&#45;48 -->
<g id="edge47" class="edge">
<title>47&#45;&#45;48</title>
<path fill="none" stroke="black" d="M398.5,-583.51C398.42,-577.58 398.35,-571.41 398.29,-565.63 398.19,-554.33 398.11,-541.93 398.06,-530.98"/>
<text text-anchor="middle" x="436.3" y="-553.03" font-family="Times New Roman,serif" font-size="14.00">AROMATIC</text>
</g>
<!-- 49 -->
<g id="node43" class="node">
<title>49</title>
<ellipse fill="none" stroke="black" cx="402.96" cy="-382.14" rx="31.93" ry="31.93"/>
<text text-anchor="middle" x="402.96" y="-377.94" font-family="Times New Roman,serif" font-size="14.00">C_49</text>
</g>
<!-- 48&#45;&#45;49 -->
<g id="edge48" class="edge">
<title>48&#45;&#45;49</title>
<path fill="none" stroke="black" d="M399.32,-466.82C400.03,-450.5 400.9,-430.54 401.61,-414.21"/>
<text text-anchor="middle" x="438.3" y="-436.3" font-family="Times New Roman,serif" font-size="14.00">AROMATIC</text>
</g>
<!-- 49&#45;&#45;50 -->
<g id="edge49" class="edge">
<title>49&#45;&#45;50</title>
<path fill="none" stroke="black" d="M400.39,-350.12C400.51,-338.83 401.93,-326.19 406.29,-315.38 410.52,-304.92 417.95,-295.16 425.44,-287.15"/>
<text text-anchor="middle" x="444.3" y="-319.58" font-family="Times New Roman,serif" font-size="14.00">AROMATIC</text>
</g>
<!-- 53&#45;&#45;54 -->
<g id="edge50" class="edge">
<title>53&#45;&#45;54</title>
<path fill="none" stroke="black" d="M606.92,-1051.55C607.33,-1040.38 608.72,-1027.82 612.19,-1016.8 614.76,-1008.64 618.97,-1000.44 623.41,-993.14"/>
<text text-anchor="middle" x="637.85" y="-1021" font-family="Times New Roman,serif" font-size="14.00">SINGLE</text>
</g>
<!-- 55 -->
<g id="node47" class="node">
<title>55</title>
<ellipse fill="none" stroke="black" cx="641.96" cy="-850.11" rx="31.93" ry="31.93"/>
<text text-anchor="middle" x="641.96" y="-845.91" font-family="Times New Roman,serif" font-size="14.00">C_55</text>
</g>
<!-- 54&#45;&#45;55 -->
<g id="edge51" class="edge">
<title>54&#45;&#45;55</title>
<path fill="none" stroke="black" d="M641.96,-934.79C641.96,-918.47 641.96,-898.51 641.96,-882.18"/>
<text text-anchor="middle" x="666.85" y="-904.27" font-family="Times New Roman,serif" font-size="14.00">SINGLE</text>
</g>
<!-- 56 -->
<g id="node48" class="node">
<title>56</title>
<ellipse fill="none" stroke="black" cx="599.96" cy="-732.85" rx="31.93" ry="31.93"/>
<text text-anchor="middle" x="599.96" y="-728.65" font-family="Times New Roman,serif" font-size="14.00">C_56</text>
</g>
<!-- 55&#45;&#45;56 -->
<g id="edge52" class="edge">
<title>55&#45;&#45;56</title>
<path fill="none" stroke="black" d="M620.07,-826.44C613.87,-818.69 607.85,-809.58 604.29,-800.15 600.14,-789.14 598.61,-776.38 598.27,-765.01"/>
<text text-anchor="middle" x="642.3" y="-787.55" font-family="Times New Roman,serif" font-size="14.00">AROMATIC</text>
</g>
<!-- 60 -->
<g id="node52" class="node">
<title>60</title>
<ellipse fill="none" stroke="black" cx="646.96" cy="-265.42" rx="31.93" ry="31.93"/>
<text text-anchor="middle" x="646.96" y="-261.22" font-family="Times New Roman,serif" font-size="14.00">C_60</text>
</g>
<!-- 55&#45;&#45;60 -->
<g id="edge53" class="edge">
<title>55&#45;&#45;60</title>
<path fill="none" stroke="black" d="M663.06,-825.56C668.98,-817.9 674.9,-809.07 678.96,-800.15 691.45,-772.75 692.96,-763.97 692.96,-733.85 692.96,-733.85 692.96,-733.85 692.96,-381.14 692.96,-351.26 690.44,-342.97 678.96,-315.38 675.53,-307.13 670.68,-298.76 665.78,-291.34"/>
<text text-anchor="middle" x="730.3" y="-553.03" font-family="Times New Roman,serif" font-size="14.00">AROMATIC</text>
</g>
<!-- 57 -->
<g id="node49" class="node">
<title>57</title>
<ellipse fill="none" stroke="black" cx="594.96" cy="-615.59" rx="31.93" ry="31.93"/>
<text text-anchor="middle" x="594.96" y="-611.39" font-family="Times New Roman,serif" font-size="14.00">C_57</text>
</g>
<!-- 56&#45;&#45;57 -->
<g id="edge54" class="edge">
<title>56&#45;&#45;57</title>
<path fill="none" stroke="black" d="M598.61,-700.66C597.9,-684.26 597.03,-664.21 596.32,-647.81"/>
<text text-anchor="middle" x="635.3" y="-669.76" font-family="Times New Roman,serif" font-size="14.00">AROMATIC</text>
</g>
<!-- 58 -->
<g id="node50" class="node">
<title>58</title>
<ellipse fill="none" stroke="black" cx="595.96" cy="-498.87" rx="31.93" ry="31.93"/>
<text text-anchor="middle" x="595.96" y="-494.67" font-family="Times New Roman,serif" font-size="14.00">C_58</text>
</g>
<!-- 57&#45;&#45;58 -->
<g id="edge55" class="edge">
<title>57&#45;&#45;58</title>
<path fill="none" stroke="black" d="M595.23,-583.55C595.38,-567.22 595.55,-547.27 595.69,-530.94"/>
<text text-anchor="middle" x="633.3" y="-553.03" font-family="Times New Roman,serif" font-size="14.00">AROMATIC</text>
</g>
<!-- 59 -->
<g id="node51" class="node">
<title>59</title>
<ellipse fill="none" stroke="black" cx="601.96" cy="-382.14" rx="31.93" ry="31.93"/>
<text text-anchor="middle" x="601.96" y="-377.94" font-family="Times New Roman,serif" font-size="14.00">C_59</text>
</g>
<!-- 58&#45;&#45;59 -->
<g id="edge56" class="edge">
<title>58&#45;&#45;59</title>
<path fill="none" stroke="black" d="M597.59,-466.82C598.44,-450.5 599.48,-430.54 600.34,-414.21"/>
<text text-anchor="middle" x="637.3" y="-436.3" font-family="Times New Roman,serif" font-size="14.00">AROMATIC</text>
</g>
<!-- 59&#45;&#45;60 -->
<g id="edge57" class="edge">
<title>59&#45;&#45;60</title>
<path fill="none" stroke="black" d="M598.83,-350.15C598.77,-338.86 600.01,-326.22 604.29,-315.38 608.44,-304.89 615.85,-295.13 623.35,-287.12"/>
<text text-anchor="middle" x="642.3" y="-319.58" font-family="Times New Roman,serif" font-size="14.00">AROMATIC</text>
</g>
</g>
</svg>
