<?xml version="1.0" encoding="UTF-8" standalone="no"?>
<!DOCTYPE svg PUBLIC "-//W3C//DTD SVG 1.1//EN"
 "http://www.w3.org/Graphics/SVG/1.1/DTD/svg11.dtd">
<!-- Generated by graphviz version 2.50.0 (0)
 -->
<!-- Title: G Pages: 1 -->
<svg width="403pt" height="168pt"
 viewBox="0.00 0.00 402.56 168.00" xmlns="http://www.w3.org/2000/svg" xmlns:xlink="http://www.w3.org/1999/xlink">
<g id="graph0" class="graph" transform="scale(1 1) rotate(0) translate(4 164)">
<title>G</title>
<polygon fill="white" stroke="transparent" points="-4,4 -4,-164 398.56,-164 398.56,4 -4,4"/>
<!-- 5 -->
<!-- 0 -->
<g id="node2" class="node">
<title>0</title>
<ellipse fill="red" stroke="red" cx="119" cy="-61" rx="18" ry="18"/>
<ellipse fill="none" stroke="red" cx="119" cy="-61" rx="22" ry="22"/>
<text text-anchor="middle" x="119" y="-56.8" font-family="Times New Roman,serif" font-size="14.00">0</text>
</g>
<!-- 5&#45;&#45;0 -->
<g id="edge1" class="edge">
<title>5&#45;&#45;0</title>
<path fill="none" stroke="darkgreen" stroke-width="4" d="M54.03,-61C64.23,-61 76.03,-61 86.69,-61"/>
<polygon fill="darkgreen" stroke="darkgreen" stroke-width="4" points="86.87,-64.5 96.87,-61 86.87,-57.5 86.87,-64.5"/>
<text text-anchor="start" x="72" y="-65.2" font-family="Times New Roman,serif" font-size="14.00">ε</text>
</g>
<!-- 1 -->
<g id="node3" class="node">
<title>1</title>
<ellipse fill="none" stroke="black" cx="204.34" cy="-123" rx="18" ry="18"/>
<text text-anchor="middle" x="204.34" y="-118.8" font-family="Times New Roman,serif" font-size="14.00">1</text>
</g>
<!-- 0&#45;&#45;1 -->
<g id="edge2" class="edge">
<title>0&#45;&#45;1</title>
<path fill="none" stroke="black" d="M137,-74.26C143.81,-79.52 151.74,-85.59 159,-91 166.06,-96.26 173.83,-101.92 180.87,-106.99"/>
<polygon fill="black" stroke="black" points="179.11,-110.03 189.28,-113.02 183.19,-104.35 179.11,-110.03"/>
<text text-anchor="middle" x="163.67" y="-101.2" font-family="Times New Roman,serif" font-size="14.00">E</text>
</g>
<!-- 3 -->
<g id="node5" class="node">
<title>3</title>
<ellipse fill="none" stroke="black" cx="376.56" cy="-110" rx="18" ry="18"/>
<text text-anchor="middle" x="376.56" y="-105.8" font-family="Times New Roman,serif" font-size="14.00">3</text>
</g>
<!-- 0&#45;&#45;3 -->
<g id="edge9" class="edge">
<title>0&#45;&#45;3</title>
<path fill="none" stroke="black" d="M140.78,-64.25C180,-70.51 267.57,-85.02 340.56,-101 343.28,-101.6 346.11,-102.26 348.93,-102.94"/>
<polygon fill="black" stroke="black" points="348.33,-106.4 358.88,-105.45 350.04,-99.61 348.33,-106.4"/>
<text text-anchor="middle" x="245.39" y="-87.2" font-family="Times New Roman,serif" font-size="14.00">D</text>
</g>
<!-- 4 -->
<g id="node6" class="node">
<title>4</title>
<ellipse fill="none" stroke="black" cx="204.34" cy="-18" rx="18" ry="18"/>
<text text-anchor="middle" x="204.34" y="-13.8" font-family="Times New Roman,serif" font-size="14.00">4</text>
</g>
<!-- 0&#45;&#45;4 -->
<g id="edge7" class="edge">
<title>0&#45;&#45;4</title>
<path fill="none" stroke="black" d="M138.91,-51.24C150.77,-45.12 166.19,-37.17 178.96,-30.58"/>
<polygon fill="black" stroke="black" points="180.84,-33.55 188.12,-25.85 177.63,-27.33 180.84,-33.55"/>
<text text-anchor="middle" x="163.67" y="-45.2" font-family="Times New Roman,serif" font-size="14.00">C</text>
</g>
<!-- 2 -->
<g id="node4" class="node">
<title>2</title>
<ellipse fill="red" stroke="red" cx="290.45" cy="-138" rx="18" ry="18"/>
<ellipse fill="none" stroke="red" cx="290.45" cy="-138" rx="22" ry="22"/>
<text text-anchor="middle" x="290.45" y="-133.8" font-family="Times New Roman,serif" font-size="14.00">2</text>
</g>
<!-- 1&#45;&#45;2 -->
<g id="edge3" class="edge">
<title>1&#45;&#45;2</title>
<path fill="none" stroke="black" d="M220.58,-131.12C226.56,-133.88 233.6,-136.62 240.34,-138 245.98,-139.16 252.05,-139.7 257.95,-139.88"/>
<polygon fill="black" stroke="black" points="258.24,-143.38 268.23,-139.86 258.22,-136.38 258.24,-143.38"/>
<text text-anchor="middle" x="245.39" y="-143.2" font-family="Times New Roman,serif" font-size="14.00">D</text>
</g>
<!-- 2&#45;&#45;1 -->
<g id="edge4" class="edge">
<title>2&#45;&#45;1</title>
<path fill="none" stroke="black" d="M271.56,-126.09C265.17,-122.5 257.74,-119.02 250.45,-117.2 244.46,-115.7 237.93,-115.66 231.73,-116.32"/>
<polygon fill="black" stroke="black" points="231.09,-112.88 221.8,-117.98 232.23,-119.79 231.09,-112.88"/>
<text text-anchor="middle" x="245.39" y="-121.2" font-family="Times New Roman,serif" font-size="14.00">E</text>
</g>
<!-- 2&#45;&#45;3 -->
<g id="edge5" class="edge">
<title>2&#45;&#45;3</title>
<path fill="none" stroke="black" d="M312.34,-135.05C321.19,-133.47 331.53,-131.17 340.56,-128 344.19,-126.72 347.92,-125.14 351.52,-123.44"/>
<polygon fill="black" stroke="black" points="353.29,-126.47 360.63,-118.82 350.13,-120.22 353.29,-126.47"/>
<text text-anchor="middle" x="335.5" y="-134.2" font-family="Times New Roman,serif" font-size="14.00">D</text>
</g>
<!-- 3&#45;&#45;2 -->
<g id="edge6" class="edge">
<title>3&#45;&#45;2</title>
<path fill="none" stroke="black" d="M358.85,-105.92C350.16,-104.55 339.49,-104.06 330.45,-107.2 324.7,-109.19 319.17,-112.42 314.16,-116.06"/>
<polygon fill="black" stroke="black" points="311.87,-113.41 306.29,-122.41 316.27,-118.86 311.87,-113.41"/>
<text text-anchor="middle" x="335.5" y="-111.2" font-family="Times New Roman,serif" font-size="14.00">E</text>
</g>
<!-- 4&#45;&#45;0 -->
<g id="edge8" class="edge">
<title>4&#45;&#45;0</title>
<path fill="none" stroke="black" d="M186.64,-13.84C178.02,-12.53 167.55,-12.31 159,-16.2 150.5,-20.07 143.13,-26.81 137.16,-33.9"/>
<polygon fill="black" stroke="black" points="134.09,-32.16 130.81,-42.24 139.65,-36.41 134.09,-32.16"/>
<text text-anchor="middle" x="163.67" y="-21.2" font-family="Times New Roman,serif" font-size="14.00">B</text>
</g>
</g>
</svg>
