<?xml version="1.0" encoding="UTF-8" standalone="no"?>
<!DOCTYPE svg PUBLIC "-//W3C//DTD SVG 1.1//EN"
 "http://www.w3.org/Graphics/SVG/1.1/DTD/svg11.dtd">
<!-- Generated by graphviz version 2.50.0 (0)
 -->
<!-- Title: G Pages: 1 -->
<svg width="1827pt" height="192pt"
 viewBox="0.00 0.00 1827.16 192.39" xmlns="http://www.w3.org/2000/svg" xmlns:xlink="http://www.w3.org/1999/xlink">
<g id="graph0" class="graph" transform="scale(1 1) rotate(0) translate(4 188.39)">
<title>G</title>
<polygon fill="white" stroke="transparent" points="-4,4 -4,-188.39 1823.16,-188.39 1823.16,4 -4,4"/>
<!-- 31 -->
<g id="node1" class="node">
<title>31</title>
<ellipse fill="none" stroke="black" cx="501.57" cy="-53.69" rx="20.89" ry="20.89"/>
<text text-anchor="middle" x="501.57" y="-49.49" font-family="Times New Roman,serif" font-size="14.00">31</text>
</g>
<!-- 33 -->
<g id="node2" class="node">
<title>33</title>
<ellipse fill="none" stroke="black" cx="588.3" cy="-53.69" rx="20.89" ry="20.89"/>
<text text-anchor="middle" x="588.3" y="-49.49" font-family="Times New Roman,serif" font-size="14.00">33</text>
</g>
<!-- 31&#45;&#45;33 -->
<g id="edge1" class="edge">
<title>31&#45;&#45;33</title>
<path fill="none" stroke="black" d="M522.65,-53.69C532.99,-53.69 545.81,-53.69 557.3,-53.69"/>
<polygon fill="black" stroke="black" points="557.36,-57.19 567.36,-53.69 557.36,-50.19 557.36,-57.19"/>
<text text-anchor="middle" x="544.93" y="-57.89" font-family="Times New Roman,serif" font-size="14.00">C</text>
</g>
<!-- 35 -->
<g id="node26" class="node">
<title>35</title>
<ellipse fill="none" stroke="black" cx="675.02" cy="-53.69" rx="20.89" ry="20.89"/>
<text text-anchor="middle" x="675.02" y="-49.49" font-family="Times New Roman,serif" font-size="14.00">35</text>
</g>
<!-- 33&#45;&#45;35 -->
<g id="edge18" class="edge">
<title>33&#45;&#45;35</title>
<path fill="none" stroke="black" d="M609.38,-53.69C619.72,-53.69 632.53,-53.69 644.02,-53.69"/>
<polygon fill="black" stroke="black" points="644.09,-57.19 654.09,-53.69 644.09,-50.19 644.09,-57.19"/>
<text text-anchor="middle" x="631.66" y="-57.89" font-family="Times New Roman,serif" font-size="14.00">B</text>
</g>
<!-- 6 -->
<g id="node3" class="node">
<title>6</title>
<ellipse fill="none" stroke="black" cx="1286.65" cy="-119.69" rx="18" ry="18"/>
<text text-anchor="middle" x="1286.65" y="-115.49" font-family="Times New Roman,serif" font-size="14.00">6</text>
</g>
<!-- 7 -->
<g id="node4" class="node">
<title>7</title>
<ellipse fill="none" stroke="black" cx="1368.76" cy="-112.69" rx="18" ry="18"/>
<text text-anchor="middle" x="1368.76" y="-108.49" font-family="Times New Roman,serif" font-size="14.00">7</text>
</g>
<!-- 6&#45;&#45;7 -->
<g id="edge2" class="edge">
<title>6&#45;&#45;7</title>
<path fill="none" stroke="black" d="M1304.64,-118.21C1315.05,-117.3 1328.61,-116.11 1340.49,-115.08"/>
<polygon fill="black" stroke="black" points="1341.14,-118.53 1350.8,-114.18 1340.53,-111.56 1341.14,-118.53"/>
<text text-anchor="middle" x="1327.7" y="-120.89" font-family="Times New Roman,serif" font-size="14.00">D</text>
</g>
<!-- 8 -->
<g id="node15" class="node">
<title>8</title>
<ellipse fill="none" stroke="black" cx="1450.87" cy="-103.69" rx="18" ry="18"/>
<text text-anchor="middle" x="1450.87" y="-99.49" font-family="Times New Roman,serif" font-size="14.00">8</text>
</g>
<!-- 7&#45;&#45;8 -->
<g id="edge9" class="edge">
<title>7&#45;&#45;8</title>
<path fill="none" stroke="black" d="M1386.75,-110.78C1397.26,-109.6 1411,-108.06 1422.97,-106.72"/>
<polygon fill="black" stroke="black" points="1423.36,-110.19 1432.91,-105.6 1422.58,-103.24 1423.36,-110.19"/>
<text text-anchor="middle" x="1409.82" y="-113.89" font-family="Times New Roman,serif" font-size="14.00">D</text>
</g>
<!-- 4 -->
<g id="node5" class="node">
<title>4</title>
<ellipse fill="none" stroke="black" cx="1117.04" cy="-94.69" rx="18" ry="18"/>
<text text-anchor="middle" x="1117.04" y="-90.49" font-family="Times New Roman,serif" font-size="14.00">4</text>
</g>
<!-- 18 -->
<g id="node6" class="node">
<title>18</title>
<ellipse fill="none" stroke="black" cx="1201.85" cy="-56.69" rx="20.89" ry="20.89"/>
<text text-anchor="middle" x="1201.85" y="-52.49" font-family="Times New Roman,serif" font-size="14.00">18</text>
</g>
<!-- 4&#45;&#45;18 -->
<g id="edge3" class="edge">
<title>4&#45;&#45;18</title>
<path fill="none" stroke="black" d="M1133.62,-87.55C1144.85,-82.39 1160.31,-75.3 1173.57,-69.21"/>
<polygon fill="black" stroke="black" points="1175.12,-72.35 1182.75,-65 1172.2,-65.99 1175.12,-72.35"/>
<text text-anchor="middle" x="1158.1" y="-82.89" font-family="Times New Roman,serif" font-size="14.00">E</text>
</g>
<!-- 17 -->
<g id="node20" class="node">
<title>17</title>
<ellipse fill="none" stroke="black" cx="1201.85" cy="-125.69" rx="20.89" ry="20.89"/>
<text text-anchor="middle" x="1201.85" y="-121.49" font-family="Times New Roman,serif" font-size="14.00">17</text>
</g>
<!-- 4&#45;&#45;17 -->
<g id="edge12" class="edge">
<title>4&#45;&#45;17</title>
<path fill="none" stroke="black" d="M1133.96,-101.84C1139.9,-104.42 1146.74,-107.29 1153.04,-109.69 1159.16,-112.02 1165.79,-114.36 1172.1,-116.5"/>
<polygon fill="black" stroke="black" points="1171.05,-119.84 1181.64,-119.66 1173.26,-113.19 1171.05,-119.84"/>
<text text-anchor="middle" x="1158.1" y="-117.89" font-family="Times New Roman,serif" font-size="14.00">E</text>
</g>
<!-- 18&#45;&#45;4 -->
<g id="edge15" class="edge">
<title>18&#45;&#45;4</title>
<path fill="none" stroke="black" d="M1181.45,-51.48C1172.44,-50.06 1161.8,-49.87 1153.04,-53.89 1145.05,-57.57 1138.2,-64.06 1132.74,-70.81"/>
<polygon fill="black" stroke="black" points="1129.62,-69.14 1126.57,-79.29 1135.28,-73.26 1129.62,-69.14"/>
<text text-anchor="middle" x="1158.1" y="-58.89" font-family="Times New Roman,serif" font-size="14.00">F</text>
</g>
<!-- 30 -->
<g id="node7" class="node">
<title>30</title>
<ellipse fill="none" stroke="black" cx="1032.24" cy="-94.69" rx="20.89" ry="20.89"/>
<text text-anchor="middle" x="1032.24" y="-90.49" font-family="Times New Roman,serif" font-size="14.00">30</text>
</g>
<!-- 30&#45;&#45;4 -->
<g id="edge4" class="edge">
<title>30&#45;&#45;4</title>
<path fill="none" stroke="black" d="M1053.28,-94.69C1063.98,-94.69 1077.3,-94.69 1088.92,-94.69"/>
<polygon fill="black" stroke="black" points="1088.98,-98.19 1098.98,-94.69 1088.98,-91.19 1088.98,-98.19"/>
<text text-anchor="middle" x="1075.99" y="-98.89" font-family="Times New Roman,serif" font-size="14.00">D</text>
</g>
<!-- 32 -->
<g id="node8" class="node">
<title>32</title>
<ellipse fill="none" stroke="black" cx="501.57" cy="-112.69" rx="20.89" ry="20.89"/>
<text text-anchor="middle" x="501.57" y="-108.49" font-family="Times New Roman,serif" font-size="14.00">32</text>
</g>
<!-- 34 -->
<g id="node9" class="node">
<title>34</title>
<ellipse fill="none" stroke="black" cx="588.3" cy="-112.69" rx="20.89" ry="20.89"/>
<text text-anchor="middle" x="588.3" y="-108.49" font-family="Times New Roman,serif" font-size="14.00">34</text>
</g>
<!-- 32&#45;&#45;34 -->
<g id="edge5" class="edge">
<title>32&#45;&#45;34</title>
<path fill="none" stroke="black" d="M522.65,-112.69C532.99,-112.69 545.81,-112.69 557.3,-112.69"/>
<polygon fill="black" stroke="black" points="557.36,-116.19 567.36,-112.69 557.36,-109.19 557.36,-116.19"/>
<text text-anchor="middle" x="544.93" y="-116.89" font-family="Times New Roman,serif" font-size="14.00">C</text>
</g>
<!-- 36 -->
<g id="node18" class="node">
<title>36</title>
<ellipse fill="none" stroke="black" cx="675.02" cy="-112.69" rx="20.89" ry="20.89"/>
<text text-anchor="middle" x="675.02" y="-108.49" font-family="Times New Roman,serif" font-size="14.00">36</text>
</g>
<!-- 34&#45;&#45;36 -->
<g id="edge26" class="edge">
<title>34&#45;&#45;36</title>
<path fill="none" stroke="black" d="M609.38,-112.69C619.72,-112.69 632.53,-112.69 644.02,-112.69"/>
<polygon fill="black" stroke="black" points="644.09,-116.19 654.09,-112.69 644.09,-109.19 644.09,-116.19"/>
<text text-anchor="middle" x="631.66" y="-116.89" font-family="Times New Roman,serif" font-size="14.00">B</text>
</g>
<!-- 28 -->
<g id="node10" class="node">
<title>28</title>
<ellipse fill="none" stroke="black" cx="382.8" cy="-111.69" rx="20.89" ry="20.89"/>
<text text-anchor="middle" x="382.8" y="-107.49" font-family="Times New Roman,serif" font-size="14.00">28</text>
</g>
<!-- 28&#45;&#45;32 -->
<g id="edge6" class="edge">
<title>28&#45;&#45;32</title>
<path fill="none" stroke="black" d="M403.61,-111.86C421.98,-112.02 449.57,-112.26 470.63,-112.44"/>
<polygon fill="black" stroke="black" points="470.64,-115.94 480.67,-112.52 470.7,-108.94 470.64,-115.94"/>
<text text-anchor="middle" x="442.19" y="-116.89" font-family="Times New Roman,serif" font-size="14.00">D</text>
</g>
<!-- 20 -->
<g id="node11" class="node">
<title>20</title>
<ellipse fill="none" stroke="black" cx="857.24" cy="-94.69" rx="20.89" ry="20.89"/>
<text text-anchor="middle" x="857.24" y="-90.49" font-family="Times New Roman,serif" font-size="14.00">20</text>
</g>
<!-- 22 -->
<g id="node12" class="node">
<title>22</title>
<ellipse fill="none" stroke="black" cx="944.74" cy="-94.69" rx="20.89" ry="20.89"/>
<text text-anchor="middle" x="944.74" y="-90.49" font-family="Times New Roman,serif" font-size="14.00">22</text>
</g>
<!-- 20&#45;&#45;22 -->
<g id="edge7" class="edge">
<title>20&#45;&#45;22</title>
<path fill="none" stroke="black" d="M878.07,-94.69C888.65,-94.69 901.88,-94.69 913.69,-94.69"/>
<polygon fill="black" stroke="black" points="914.02,-98.19 924.02,-94.69 914.02,-91.19 914.02,-98.19"/>
<text text-anchor="middle" x="900.99" y="-98.89" font-family="Times New Roman,serif" font-size="14.00">D</text>
</g>
<!-- 22&#45;&#45;30 -->
<g id="edge29" class="edge">
<title>22&#45;&#45;30</title>
<path fill="none" stroke="black" d="M965.57,-94.69C976.15,-94.69 989.38,-94.69 1001.19,-94.69"/>
<polygon fill="black" stroke="black" points="1001.52,-98.19 1011.52,-94.69 1001.52,-91.19 1001.52,-98.19"/>
<text text-anchor="middle" x="988.49" y="-98.89" font-family="Times New Roman,serif" font-size="14.00">D</text>
</g>
<!-- 9 -->
<g id="node13" class="node">
<title>9</title>
<ellipse fill="red" stroke="red" cx="1536.21" cy="-86.69" rx="18" ry="18"/>
<ellipse fill="none" stroke="red" cx="1536.21" cy="-86.69" rx="22" ry="22"/>
<text text-anchor="middle" x="1536.21" y="-82.49" font-family="Times New Roman,serif" font-size="14.00">9</text>
</g>
<!-- 23 -->
<g id="node14" class="node">
<title>23</title>
<ellipse fill="none" stroke="black" cx="1625.01" cy="-61.69" rx="20.89" ry="20.89"/>
<text text-anchor="middle" x="1625.01" y="-57.49" font-family="Times New Roman,serif" font-size="14.00">23</text>
</g>
<!-- 9&#45;&#45;23 -->
<g id="edge8" class="edge">
<title>9&#45;&#45;23</title>
<path fill="none" stroke="black" d="M1557.78,-80.77C1568.9,-77.57 1582.82,-73.56 1595.03,-70.04"/>
<polygon fill="black" stroke="black" points="1596.14,-73.36 1604.78,-67.23 1594.2,-66.64 1596.14,-73.36"/>
<text text-anchor="middle" x="1581.26" y="-79.89" font-family="Times New Roman,serif" font-size="14.00">A</text>
</g>
<!-- 25 -->
<g id="node22" class="node">
<title>25</title>
<ellipse fill="none" stroke="black" cx="1711.74" cy="-53.69" rx="20.89" ry="20.89"/>
<text text-anchor="middle" x="1711.74" y="-49.49" font-family="Times New Roman,serif" font-size="14.00">25</text>
</g>
<!-- 23&#45;&#45;25 -->
<g id="edge22" class="edge">
<title>23&#45;&#45;25</title>
<path fill="none" stroke="black" d="M1645.66,-59.84C1656.07,-58.86 1669.07,-57.63 1680.71,-56.53"/>
<polygon fill="black" stroke="black" points="1681.27,-59.99 1690.9,-55.57 1680.61,-53.02 1681.27,-59.99"/>
<text text-anchor="middle" x="1668.37" y="-62.89" font-family="Times New Roman,serif" font-size="14.00">B</text>
</g>
<!-- 8&#45;&#45;9 -->
<g id="edge24" class="edge">
<title>8&#45;&#45;9</title>
<path fill="none" stroke="black" d="M1468.74,-100.25C1478.96,-98.17 1492.32,-95.44 1504.38,-92.98"/>
<polygon fill="black" stroke="black" points="1505.43,-96.34 1514.53,-90.91 1504.03,-89.48 1505.43,-96.34"/>
<text text-anchor="middle" x="1491.54" y="-100.89" font-family="Times New Roman,serif" font-size="14.00">B</text>
</g>
<!-- 37 -->
<!-- 0 -->
<g id="node17" class="node">
<title>0</title>
<ellipse fill="red" stroke="red" cx="119" cy="-133.69" rx="18" ry="18"/>
<ellipse fill="none" stroke="red" cx="119" cy="-133.69" rx="22" ry="22"/>
<text text-anchor="middle" x="119" y="-129.49" font-family="Times New Roman,serif" font-size="14.00">0</text>
</g>
<!-- 37&#45;&#45;0 -->
<g id="edge10" class="edge">
<title>37&#45;&#45;0</title>
<path fill="none" stroke="darkgreen" stroke-width="4" d="M54.03,-133.69C64.23,-133.69 76.03,-133.69 86.69,-133.69"/>
<polygon fill="darkgreen" stroke="darkgreen" stroke-width="4" points="86.87,-137.19 96.87,-133.69 86.87,-130.19 86.87,-137.19"/>
<text text-anchor="start" x="72" y="-137.89" font-family="Times New Roman,serif" font-size="14.00">ε</text>
</g>
<!-- 19 -->
<g id="node24" class="node">
<title>19</title>
<ellipse fill="none" stroke="black" cx="207.8" cy="-163.69" rx="20.89" ry="20.89"/>
<text text-anchor="middle" x="207.8" y="-159.49" font-family="Times New Roman,serif" font-size="14.00">19</text>
</g>
<!-- 0&#45;&#45;19 -->
<g id="edge20" class="edge">
<title>0&#45;&#45;19</title>
<path fill="none" stroke="black" d="M140.13,-140.65C151.51,-144.58 165.93,-149.57 178.44,-153.89"/>
<polygon fill="black" stroke="black" points="177.37,-157.23 187.97,-157.18 179.66,-150.61 177.37,-157.23"/>
<text text-anchor="middle" x="164.06" y="-153.89" font-family="Times New Roman,serif" font-size="14.00">B</text>
</g>
<!-- 24 -->
<g id="node27" class="node">
<title>24</title>
<ellipse fill="none" stroke="black" cx="207.8" cy="-104.69" rx="20.89" ry="20.89"/>
<text text-anchor="middle" x="207.8" y="-100.49" font-family="Times New Roman,serif" font-size="14.00">24</text>
</g>
<!-- 0&#45;&#45;24 -->
<g id="edge19" class="edge">
<title>0&#45;&#45;24</title>
<path fill="none" stroke="black" d="M140.2,-126.41C146.23,-124.27 152.87,-121.95 159,-119.89 165.18,-117.82 171.83,-115.66 178.14,-113.64"/>
<polygon fill="black" stroke="black" points="179.21,-116.98 187.68,-110.62 177.09,-110.3 179.21,-116.98"/>
<text text-anchor="middle" x="164.06" y="-124.89" font-family="Times New Roman,serif" font-size="14.00">A</text>
</g>
<!-- 16 -->
<g id="node19" class="node">
<title>16</title>
<ellipse fill="red" stroke="red" cx="766.52" cy="-94.69" rx="20.86" ry="20.86"/>
<ellipse fill="none" stroke="red" cx="766.52" cy="-94.69" rx="24.89" ry="24.89"/>
<text text-anchor="middle" x="766.52" y="-90.49" font-family="Times New Roman,serif" font-size="14.00">16</text>
</g>
<!-- 36&#45;&#45;16 -->
<g id="edge11" class="edge">
<title>36&#45;&#45;16</title>
<path fill="none" stroke="black" d="M695.44,-108.79C706.12,-106.64 719.68,-103.91 732.02,-101.43"/>
<polygon fill="black" stroke="black" points="732.89,-104.83 742,-99.42 731.51,-97.96 732.89,-104.83"/>
<text text-anchor="middle" x="718.77" y="-109.89" font-family="Times New Roman,serif" font-size="14.00">A</text>
</g>
<!-- 16&#45;&#45;20 -->
<g id="edge27" class="edge">
<title>16&#45;&#45;20</title>
<path fill="none" stroke="black" d="M791.3,-94.69C801.95,-94.69 814.65,-94.69 825.98,-94.69"/>
<polygon fill="black" stroke="black" points="826.31,-98.19 836.31,-94.69 826.31,-91.19 826.31,-98.19"/>
<text text-anchor="middle" x="813.88" y="-98.89" font-family="Times New Roman,serif" font-size="14.00">B</text>
</g>
<!-- 17&#45;&#45;6 -->
<g id="edge21" class="edge">
<title>17&#45;&#45;6</title>
<path fill="none" stroke="black" d="M1222.89,-124.24C1233.59,-123.47 1246.91,-122.5 1258.53,-121.66"/>
<polygon fill="black" stroke="black" points="1258.87,-125.14 1268.59,-120.93 1258.36,-118.16 1258.87,-125.14"/>
<text text-anchor="middle" x="1245.59" y="-127.89" font-family="Times New Roman,serif" font-size="14.00">D</text>
</g>
<!-- 29 -->
<g id="node21" class="node">
<title>29</title>
<ellipse fill="none" stroke="black" cx="442.19" cy="-161.69" rx="20.89" ry="20.89"/>
<text text-anchor="middle" x="442.19" y="-157.49" font-family="Times New Roman,serif" font-size="14.00">29</text>
</g>
<!-- 29&#45;&#45;4 -->
<g id="edge13" class="edge">
<title>29&#45;&#45;4</title>
<path fill="none" stroke="black" d="M463.26,-161.69C483.59,-161.69 515.95,-161.69 543.93,-161.69 543.93,-161.69 543.93,-161.69 1033.24,-161.69 1061.91,-161.69 1086.23,-137.11 1100.95,-117.73"/>
<polygon fill="black" stroke="black" points="1103.82,-119.72 1106.83,-109.56 1098.15,-115.63 1103.82,-119.72"/>
<text text-anchor="middle" x="766.52" y="-165.89" font-family="Times New Roman,serif" font-size="14.00">D</text>
</g>
<!-- 27 -->
<g id="node23" class="node">
<title>27</title>
<ellipse fill="none" stroke="black" cx="1798.46" cy="-20.69" rx="20.89" ry="20.89"/>
<text text-anchor="middle" x="1798.46" y="-16.49" font-family="Times New Roman,serif" font-size="14.00">27</text>
</g>
<!-- 25&#45;&#45;27 -->
<g id="edge14" class="edge">
<title>25&#45;&#45;27</title>
<path fill="none" stroke="black" d="M1731.54,-46.37C1742.7,-42.02 1757.05,-36.43 1769.51,-31.58"/>
<polygon fill="black" stroke="black" points="1770.95,-34.77 1779,-27.88 1768.41,-28.25 1770.95,-34.77"/>
<text text-anchor="middle" x="1755.1" y="-42.89" font-family="Times New Roman,serif" font-size="14.00">C</text>
</g>
<!-- 27&#45;&#45;31 -->
<g id="edge28" class="edge">
<title>27&#45;&#45;31</title>
<path fill="none" stroke="black" d="M1778.47,-15.01C1761.43,-10.41 1735.64,-4.69 1712.74,-4.69 587.3,-4.69 587.3,-4.69 587.3,-4.69 563.57,-4.69 540.51,-19.28 524.46,-32.53"/>
<polygon fill="black" stroke="black" points="521.98,-30.05 516.74,-39.26 526.58,-35.33 521.98,-30.05"/>
<text text-anchor="middle" x="1158.1" y="-8.89" font-family="Times New Roman,serif" font-size="14.00">D</text>
</g>
<!-- 21 -->
<g id="node25" class="node">
<title>21</title>
<ellipse fill="none" stroke="black" cx="295.3" cy="-163.69" rx="20.89" ry="20.89"/>
<text text-anchor="middle" x="295.3" y="-159.49" font-family="Times New Roman,serif" font-size="14.00">21</text>
</g>
<!-- 19&#45;&#45;21 -->
<g id="edge16" class="edge">
<title>19&#45;&#45;21</title>
<path fill="none" stroke="black" d="M228.63,-163.69C239.21,-163.69 252.44,-163.69 264.25,-163.69"/>
<polygon fill="black" stroke="black" points="264.58,-167.19 274.58,-163.69 264.58,-160.19 264.58,-167.19"/>
<text text-anchor="middle" x="251.55" y="-167.89" font-family="Times New Roman,serif" font-size="14.00">D</text>
</g>
<!-- 21&#45;&#45;29 -->
<g id="edge25" class="edge">
<title>21&#45;&#45;29</title>
<path fill="none" stroke="black" d="M316.14,-163.42C340.61,-163.08 382.44,-162.5 410.92,-162.11"/>
<polygon fill="black" stroke="black" points="411.17,-165.61 421.12,-161.97 411.07,-158.61 411.17,-165.61"/>
<text text-anchor="middle" x="339.05" y="-166.89" font-family="Times New Roman,serif" font-size="14.00">D</text>
</g>
<!-- 35&#45;&#45;16 -->
<g id="edge17" class="edge">
<title>35&#45;&#45;16</title>
<path fill="none" stroke="black" d="M694.13,-61.99C705.64,-67.26 720.84,-74.23 734.26,-80.37"/>
<polygon fill="black" stroke="black" points="733.09,-83.69 743.64,-84.67 736.01,-77.32 733.09,-83.69"/>
<text text-anchor="middle" x="718.77" y="-79.89" font-family="Times New Roman,serif" font-size="14.00">A</text>
</g>
<!-- 26 -->
<g id="node28" class="node">
<title>26</title>
<ellipse fill="none" stroke="black" cx="295.3" cy="-104.69" rx="20.89" ry="20.89"/>
<text text-anchor="middle" x="295.3" y="-100.49" font-family="Times New Roman,serif" font-size="14.00">26</text>
</g>
<!-- 24&#45;&#45;26 -->
<g id="edge23" class="edge">
<title>24&#45;&#45;26</title>
<path fill="none" stroke="black" d="M228.63,-104.69C239.21,-104.69 252.44,-104.69 264.25,-104.69"/>
<polygon fill="black" stroke="black" points="264.58,-108.19 274.58,-104.69 264.58,-101.19 264.58,-108.19"/>
<text text-anchor="middle" x="251.55" y="-108.89" font-family="Times New Roman,serif" font-size="14.00">B</text>
</g>
<!-- 26&#45;&#45;28 -->
<g id="edge30" class="edge">
<title>26&#45;&#45;28</title>
<path fill="none" stroke="black" d="M316.13,-106.32C326.81,-107.19 340.21,-108.29 352.11,-109.26"/>
<polygon fill="black" stroke="black" points="351.82,-112.75 362.08,-110.08 352.4,-105.77 351.82,-112.75"/>
<text text-anchor="middle" x="339.05" y="-112.89" font-family="Times New Roman,serif" font-size="14.00">C</text>
</g>
</g>
</svg>
