<?xml version="1.0" encoding="UTF-8" standalone="no"?>
<!DOCTYPE svg PUBLIC "-//W3C//DTD SVG 1.1//EN"
 "http://www.w3.org/Graphics/SVG/1.1/DTD/svg11.dtd">
<!-- Generated by graphviz version 2.50.0 (0)
 -->
<!-- Title: G Pages: 1 -->
<svg width="1720pt" height="538pt"
 viewBox="0.00 0.00 1719.71 538.39" xmlns="http://www.w3.org/2000/svg" xmlns:xlink="http://www.w3.org/1999/xlink">
<g id="graph0" class="graph" transform="scale(1 1) rotate(0) translate(4 534.39)">
<title>G</title>
<polygon fill="white" stroke="transparent" points="-4,4 -4,-534.39 1715.71,-534.39 1715.71,4 -4,4"/>
<!-- 1 -->
<g id="node1" class="node">
<title>1</title>
<ellipse fill="none" stroke="black" cx="200.16" cy="-120.69" rx="18" ry="18"/>
<text text-anchor="middle" x="200.16" y="-116.49" font-family="Times New Roman,serif" font-size="14.00">1</text>
</g>
<!-- 2 -->
<g id="node2" class="node">
<title>2</title>
<ellipse fill="none" stroke="black" cx="291.27" cy="-305.69" rx="18" ry="18"/>
<text text-anchor="middle" x="291.27" y="-301.49" font-family="Times New Roman,serif" font-size="14.00">2</text>
</g>
<!-- 1&#45;&#45;2 -->
<g id="edge1" class="edge">
<title>1&#45;&#45;2</title>
<path fill="none" stroke="black" d="M208.63,-136.71C220.34,-161.75 243.78,-211.65 264.27,-253.69 268.57,-262.53 273.36,-272.16 277.65,-280.71"/>
<polygon fill="black" stroke="black" points="274.6,-282.44 282.22,-289.8 280.86,-279.3 274.6,-282.44"/>
<text text-anchor="middle" x="241.21" y="-217.89" font-family="Times New Roman,serif" font-size="14.00">D</text>
</g>
<!-- 23 -->
<g id="node25" class="node">
<title>23</title>
<ellipse fill="none" stroke="black" cx="384.3" cy="-94.69" rx="20.89" ry="20.89"/>
<text text-anchor="middle" x="384.3" y="-90.49" font-family="Times New Roman,serif" font-size="14.00">23</text>
</g>
<!-- 1&#45;&#45;23 -->
<g id="edge28" class="edge">
<title>1&#45;&#45;23</title>
<path fill="none" stroke="black" d="M218.29,-118.25C249.3,-113.82 315.05,-104.44 353.53,-98.94"/>
<polygon fill="black" stroke="black" points="354.21,-102.38 363.61,-97.5 353.22,-95.45 354.21,-102.38"/>
<text text-anchor="middle" x="291.27" y="-115.89" font-family="Times New Roman,serif" font-size="14.00">G</text>
</g>
<!-- 37 -->
<g id="node35" class="node">
<title>37</title>
<ellipse fill="none" stroke="black" cx="384.3" cy="-338.69" rx="20.89" ry="20.89"/>
<text text-anchor="middle" x="384.3" y="-334.49" font-family="Times New Roman,serif" font-size="14.00">37</text>
</g>
<!-- 2&#45;&#45;37 -->
<g id="edge41" class="edge">
<title>2&#45;&#45;37</title>
<path fill="none" stroke="black" d="M308.54,-311.59C321.47,-316.28 339.84,-322.94 355.14,-328.48"/>
<polygon fill="black" stroke="black" points="354.06,-331.82 364.66,-331.93 356.45,-325.24 354.06,-331.82"/>
<text text-anchor="middle" x="340.94" y="-328.89" font-family="Times New Roman,serif" font-size="14.00">C</text>
</g>
<!-- 38 -->
<g id="node36" class="node">
<title>38</title>
<ellipse fill="none" stroke="black" cx="384.3" cy="-397.69" rx="20.89" ry="20.89"/>
<text text-anchor="middle" x="384.3" y="-393.49" font-family="Times New Roman,serif" font-size="14.00">38</text>
</g>
<!-- 2&#45;&#45;38 -->
<g id="edge43" class="edge">
<title>2&#45;&#45;38</title>
<path fill="none" stroke="black" d="M304.55,-318.1C319.24,-332.95 344.09,-358.07 361.95,-376.12"/>
<polygon fill="black" stroke="black" points="359.61,-378.72 369.13,-383.37 364.58,-373.8 359.61,-378.72"/>
<text text-anchor="middle" x="340.94" y="-360.89" font-family="Times New Roman,serif" font-size="14.00">C</text>
</g>
<!-- 4 -->
<g id="node3" class="node">
<title>4</title>
<ellipse fill="none" stroke="black" cx="471.8" cy="-323.69" rx="18" ry="18"/>
<text text-anchor="middle" x="471.8" y="-319.49" font-family="Times New Roman,serif" font-size="14.00">4</text>
</g>
<!-- 4&#45;&#45;2 -->
<g id="edge2" class="edge">
<title>4&#45;&#45;2</title>
<path fill="none" stroke="black" d="M456.35,-314.34C443.47,-306.6 423.79,-296.2 404.99,-291.89 375.66,-285.18 341.24,-291.37 318.22,-297.47"/>
<polygon fill="black" stroke="black" points="317.17,-294.13 308.5,-300.22 319.08,-300.87 317.17,-294.13"/>
<text text-anchor="middle" x="384.3" y="-296.89" font-family="Times New Roman,serif" font-size="14.00">D</text>
</g>
<!-- 5 -->
<g id="node4" class="node">
<title>5</title>
<ellipse fill="none" stroke="black" cx="471.8" cy="-397.69" rx="18" ry="18"/>
<text text-anchor="middle" x="471.8" y="-393.49" font-family="Times New Roman,serif" font-size="14.00">5</text>
</g>
<!-- 6 -->
<g id="node5" class="node">
<title>6</title>
<ellipse fill="none" stroke="black" cx="558.52" cy="-397.69" rx="18" ry="18"/>
<text text-anchor="middle" x="558.52" y="-393.49" font-family="Times New Roman,serif" font-size="14.00">6</text>
</g>
<!-- 5&#45;&#45;6 -->
<g id="edge3" class="edge">
<title>5&#45;&#45;6</title>
<path fill="none" stroke="black" d="M489.94,-397.69C501.54,-397.69 517.11,-397.69 530.37,-397.69"/>
<polygon fill="black" stroke="black" points="530.4,-401.19 540.4,-397.69 530.4,-394.19 530.4,-401.19"/>
<text text-anchor="middle" x="515.16" y="-401.89" font-family="Times New Roman,serif" font-size="14.00">B</text>
</g>
<!-- 7 -->
<g id="node6" class="node">
<title>7</title>
<ellipse fill="none" stroke="black" cx="645.25" cy="-397.69" rx="18" ry="18"/>
<text text-anchor="middle" x="645.25" y="-393.49" font-family="Times New Roman,serif" font-size="14.00">7</text>
</g>
<!-- 6&#45;&#45;7 -->
<g id="edge4" class="edge">
<title>6&#45;&#45;7</title>
<path fill="none" stroke="black" d="M576.67,-397.69C588.27,-397.69 603.83,-397.69 617.1,-397.69"/>
<polygon fill="black" stroke="black" points="617.13,-401.19 627.13,-397.69 617.13,-394.19 617.13,-401.19"/>
<text text-anchor="middle" x="601.89" y="-401.89" font-family="Times New Roman,serif" font-size="14.00">C</text>
</g>
<!-- 8 -->
<g id="node7" class="node">
<title>8</title>
<ellipse fill="none" stroke="black" cx="732.75" cy="-397.69" rx="18" ry="18"/>
<text text-anchor="middle" x="732.75" y="-393.49" font-family="Times New Roman,serif" font-size="14.00">8</text>
</g>
<!-- 7&#45;&#45;8 -->
<g id="edge5" class="edge">
<title>7&#45;&#45;8</title>
<path fill="none" stroke="black" d="M663.55,-397.69C675.25,-397.69 690.96,-397.69 704.35,-397.69"/>
<polygon fill="black" stroke="black" points="704.47,-401.19 714.47,-397.69 704.47,-394.19 704.47,-401.19"/>
<text text-anchor="middle" x="689" y="-401.89" font-family="Times New Roman,serif" font-size="14.00">D</text>
</g>
<!-- 46 -->
<g id="node24" class="node">
<title>46</title>
<ellipse fill="none" stroke="white" cx="797.44" cy="-397.69" rx="7" ry="7"/>
<text text-anchor="middle" x="797.44" y="-393.49" font-family="Times New Roman,serif" font-size="14.00">E</text>
</g>
<!-- 8&#45;&#45;46 -->
<g id="edge25" class="edge">
<title>8&#45;&#45;46</title>
<path fill="none" stroke="black" d="M750.88,-397.69C763.93,-397.69 781.15,-397.69 790.23,-397.69"/>
</g>
<!-- 9 -->
<g id="node8" class="node">
<title>9</title>
<ellipse fill="none" stroke="black" cx="859.44" cy="-430.69" rx="18" ry="18"/>
<text text-anchor="middle" x="859.44" y="-426.49" font-family="Times New Roman,serif" font-size="14.00">9</text>
</g>
<!-- 10 -->
<g id="node9" class="node">
<title>10</title>
<ellipse fill="none" stroke="black" cx="943.47" cy="-433.69" rx="20.89" ry="20.89"/>
<text text-anchor="middle" x="943.47" y="-429.49" font-family="Times New Roman,serif" font-size="14.00">10</text>
</g>
<!-- 9&#45;&#45;10 -->
<g id="edge6" class="edge">
<title>9&#45;&#45;10</title>
<path fill="none" stroke="black" d="M877.44,-431.32C887.5,-431.68 900.53,-432.16 912.29,-432.59"/>
<polygon fill="black" stroke="black" points="912.48,-436.1 922.61,-432.97 912.74,-429.1 912.48,-436.1"/>
<text text-anchor="middle" x="900.11" y="-435.89" font-family="Times New Roman,serif" font-size="14.00">B</text>
</g>
<!-- 11 -->
<g id="node10" class="node">
<title>11</title>
<ellipse fill="none" stroke="black" cx="1030.19" cy="-434.69" rx="20.89" ry="20.89"/>
<text text-anchor="middle" x="1030.19" y="-430.49" font-family="Times New Roman,serif" font-size="14.00">11</text>
</g>
<!-- 10&#45;&#45;11 -->
<g id="edge7" class="edge">
<title>10&#45;&#45;11</title>
<path fill="none" stroke="black" d="M964.55,-433.93C974.89,-434.05 987.71,-434.2 999.19,-434.34"/>
<polygon fill="black" stroke="black" points="999.22,-437.84 1009.26,-434.46 999.3,-430.84 999.22,-437.84"/>
<text text-anchor="middle" x="986.83" y="-437.89" font-family="Times New Roman,serif" font-size="14.00">C</text>
</g>
<!-- 12 -->
<g id="node11" class="node">
<title>12</title>
<ellipse fill="none" stroke="black" cx="1117.69" cy="-379.69" rx="20.89" ry="20.89"/>
<text text-anchor="middle" x="1117.69" y="-375.49" font-family="Times New Roman,serif" font-size="14.00">12</text>
</g>
<!-- 11&#45;&#45;12 -->
<g id="edge8" class="edge">
<title>11&#45;&#45;12</title>
<path fill="none" stroke="black" d="M1048.09,-423.83C1060.38,-415.92 1077.25,-405.07 1091.18,-396.1"/>
<polygon fill="black" stroke="black" points="1093.32,-398.89 1099.84,-390.54 1089.53,-393 1093.32,-398.89"/>
<text text-anchor="middle" x="1073.94" y="-412.89" font-family="Times New Roman,serif" font-size="14.00">D</text>
</g>
<!-- 13 -->
<g id="node12" class="node">
<title>13</title>
<ellipse fill="none" stroke="black" cx="1117.69" cy="-509.69" rx="20.89" ry="20.89"/>
<text text-anchor="middle" x="1117.69" y="-505.49" font-family="Times New Roman,serif" font-size="14.00">13</text>
</g>
<!-- 11&#45;&#45;13 -->
<g id="edge10" class="edge">
<title>11&#45;&#45;13</title>
<path fill="none" stroke="black" d="M1044.54,-450.15C1051.49,-457.85 1060.31,-467.11 1068.89,-474.69 1075.87,-480.86 1083.89,-487.04 1091.35,-492.46"/>
<polygon fill="black" stroke="black" points="1089.56,-495.49 1099.74,-498.42 1093.62,-489.78 1089.56,-495.49"/>
<text text-anchor="middle" x="1073.94" y="-486.89" font-family="Times New Roman,serif" font-size="14.00">B</text>
</g>
<!-- 22 -->
<g id="node23" class="node">
<title>22</title>
<ellipse fill="none" stroke="black" cx="1117.69" cy="-440.69" rx="20.89" ry="20.89"/>
<text text-anchor="middle" x="1117.69" y="-436.49" font-family="Times New Roman,serif" font-size="14.00">22</text>
</g>
<!-- 11&#45;&#45;22 -->
<g id="edge23" class="edge">
<title>11&#45;&#45;22</title>
<path fill="none" stroke="black" d="M1048.18,-445.37C1054.45,-448.73 1061.76,-452 1068.89,-453.69 1075.48,-455.26 1082.54,-454.63 1089.15,-453.01"/>
<polygon fill="black" stroke="black" points="1090.61,-456.22 1099.05,-449.82 1088.46,-449.56 1090.61,-456.22"/>
<text text-anchor="middle" x="1073.94" y="-457.89" font-family="Times New Roman,serif" font-size="14.00">G</text>
</g>
<!-- 12&#45;&#45;11 -->
<g id="edge9" class="edge">
<title>12&#45;&#45;11</title>
<path fill="none" stroke="black" d="M1097.01,-377.85C1087.93,-377.87 1077.32,-379.18 1068.89,-383.89 1059.08,-389.38 1051.09,-398.59 1045.04,-407.68"/>
<polygon fill="black" stroke="black" points="1042.04,-405.87 1039.83,-416.23 1048.02,-409.51 1042.04,-405.87"/>
<text text-anchor="middle" x="1073.94" y="-387.89" font-family="Times New Roman,serif" font-size="14.00">G</text>
</g>
<!-- 45 -->
<g id="node21" class="node">
<title>45</title>
<ellipse fill="none" stroke="white" cx="1182.39" cy="-334.69" rx="7" ry="7"/>
<text text-anchor="middle" x="1182.39" y="-330.49" font-family="Times New Roman,serif" font-size="14.00">E</text>
</g>
<!-- 13&#45;&#45;45 -->
<g id="edge20" class="edge">
<title>13&#45;&#45;45</title>
<path fill="none" stroke="black" d="M1128.53,-491.72C1131.89,-485.21 1135.52,-477.72 1138.39,-470.69 1158.1,-422.31 1174.53,-361.29 1179.69,-341.34"/>
</g>
<!-- 14 -->
<g id="node13" class="node">
<title>14</title>
<ellipse fill="none" stroke="black" cx="1247.08" cy="-334.69" rx="20.89" ry="20.89"/>
<text text-anchor="middle" x="1247.08" y="-330.49" font-family="Times New Roman,serif" font-size="14.00">14</text>
</g>
<!-- 15 -->
<g id="node14" class="node">
<title>15</title>
<ellipse fill="none" stroke="black" cx="1334.58" cy="-334.69" rx="20.89" ry="20.89"/>
<text text-anchor="middle" x="1334.58" y="-330.49" font-family="Times New Roman,serif" font-size="14.00">15</text>
</g>
<!-- 14&#45;&#45;15 -->
<g id="edge11" class="edge">
<title>14&#45;&#45;15</title>
<path fill="none" stroke="black" d="M1267.91,-334.69C1278.48,-334.69 1291.72,-334.69 1303.53,-334.69"/>
<polygon fill="black" stroke="black" points="1303.85,-338.19 1313.85,-334.69 1303.85,-331.19 1303.85,-338.19"/>
<text text-anchor="middle" x="1290.83" y="-338.89" font-family="Times New Roman,serif" font-size="14.00">D</text>
</g>
<!-- 16 -->
<g id="node15" class="node">
<title>16</title>
<ellipse fill="none" stroke="black" cx="1421.3" cy="-334.69" rx="20.89" ry="20.89"/>
<text text-anchor="middle" x="1421.3" y="-330.49" font-family="Times New Roman,serif" font-size="14.00">16</text>
</g>
<!-- 15&#45;&#45;16 -->
<g id="edge12" class="edge">
<title>15&#45;&#45;16</title>
<path fill="none" stroke="black" d="M1355.65,-334.69C1366,-334.69 1378.81,-334.69 1390.3,-334.69"/>
<polygon fill="black" stroke="black" points="1390.37,-338.19 1400.37,-334.69 1390.37,-331.19 1390.37,-338.19"/>
<text text-anchor="middle" x="1377.94" y="-338.89" font-family="Times New Roman,serif" font-size="14.00">C</text>
</g>
<!-- 17 -->
<g id="node16" class="node">
<title>17</title>
<ellipse fill="none" stroke="black" cx="1508.03" cy="-334.69" rx="20.89" ry="20.89"/>
<text text-anchor="middle" x="1508.03" y="-330.49" font-family="Times New Roman,serif" font-size="14.00">17</text>
</g>
<!-- 16&#45;&#45;17 -->
<g id="edge13" class="edge">
<title>16&#45;&#45;17</title>
<path fill="none" stroke="black" d="M1442.38,-334.69C1452.72,-334.69 1465.54,-334.69 1477.02,-334.69"/>
<polygon fill="black" stroke="black" points="1477.09,-338.19 1487.09,-334.69 1477.09,-331.19 1477.09,-338.19"/>
<text text-anchor="middle" x="1464.66" y="-338.89" font-family="Times New Roman,serif" font-size="14.00">B</text>
</g>
<!-- 18 -->
<g id="node17" class="node">
<title>18</title>
<ellipse fill="none" stroke="black" cx="1595.52" cy="-334.69" rx="20.89" ry="20.89"/>
<text text-anchor="middle" x="1595.52" y="-330.49" font-family="Times New Roman,serif" font-size="14.00">18</text>
</g>
<!-- 17&#45;&#45;18 -->
<g id="edge14" class="edge">
<title>17&#45;&#45;18</title>
<path fill="none" stroke="black" d="M1528.86,-334.69C1539.43,-334.69 1552.66,-334.69 1564.47,-334.69"/>
<polygon fill="black" stroke="black" points="1564.8,-338.19 1574.8,-334.69 1564.8,-331.19 1564.8,-338.19"/>
<text text-anchor="middle" x="1551.77" y="-338.89" font-family="Times New Roman,serif" font-size="14.00">A</text>
</g>
<!-- 19 -->
<g id="node18" class="node">
<title>19</title>
<ellipse fill="none" stroke="black" cx="1687.02" cy="-405.69" rx="20.89" ry="20.89"/>
<text text-anchor="middle" x="1687.02" y="-401.49" font-family="Times New Roman,serif" font-size="14.00">19</text>
</g>
<!-- 18&#45;&#45;19 -->
<g id="edge15" class="edge">
<title>18&#45;&#45;19</title>
<path fill="none" stroke="black" d="M1612.52,-347.39C1626.27,-358.29 1646.29,-374.17 1661.96,-386.61"/>
<polygon fill="black" stroke="black" points="1660.15,-389.64 1670.16,-393.11 1664.5,-384.15 1660.15,-389.64"/>
<text text-anchor="middle" x="1639.27" y="-375.89" font-family="Times New Roman,serif" font-size="14.00">D</text>
</g>
<!-- 20 -->
<g id="node19" class="node">
<title>20</title>
<ellipse fill="red" stroke="red" cx="1687.02" cy="-334.69" rx="20.86" ry="20.86"/>
<ellipse fill="none" stroke="red" cx="1687.02" cy="-334.69" rx="24.89" ry="24.89"/>
<text text-anchor="middle" x="1687.02" y="-330.49" font-family="Times New Roman,serif" font-size="14.00">20</text>
</g>
<!-- 18&#45;&#45;20 -->
<g id="edge17" class="edge">
<title>18&#45;&#45;20</title>
<path fill="none" stroke="black" d="M1616.39,-334.69C1626.82,-334.69 1639.9,-334.69 1651.9,-334.69"/>
<polygon fill="black" stroke="black" points="1652.08,-338.19 1662.08,-334.69 1652.08,-331.19 1652.08,-338.19"/>
<text text-anchor="middle" x="1639.27" y="-338.89" font-family="Times New Roman,serif" font-size="14.00">H</text>
</g>
<!-- 21 -->
<g id="node20" class="node">
<title>21</title>
<ellipse fill="none" stroke="black" cx="1687.02" cy="-263.69" rx="20.89" ry="20.89"/>
<text text-anchor="middle" x="1687.02" y="-259.49" font-family="Times New Roman,serif" font-size="14.00">21</text>
</g>
<!-- 18&#45;&#45;21 -->
<g id="edge18" class="edge">
<title>18&#45;&#45;21</title>
<path fill="none" stroke="black" d="M1600.04,-314.15C1604.46,-295.35 1614.07,-268.59 1634.22,-255.89 1641.33,-251.41 1650.06,-251.18 1658.31,-252.72"/>
<polygon fill="black" stroke="black" points="1657.43,-256.11 1668,-255.3 1659.23,-249.34 1657.43,-256.11"/>
<text text-anchor="middle" x="1639.27" y="-260.89" font-family="Times New Roman,serif" font-size="14.00">G</text>
</g>
<!-- 19&#45;&#45;18 -->
<g id="edge16" class="edge">
<title>19&#45;&#45;18</title>
<path fill="none" stroke="black" d="M1666.37,-404.22C1656.02,-402.63 1643.57,-399.38 1634.22,-392.69 1623.63,-385.14 1615.26,-373.6 1609.12,-362.79"/>
<polygon fill="black" stroke="black" points="1612.05,-360.84 1604.3,-353.61 1605.85,-364.09 1612.05,-360.84"/>
<text text-anchor="middle" x="1639.27" y="-401.89" font-family="Times New Roman,serif" font-size="14.00">G</text>
</g>
<!-- 21&#45;&#45;18 -->
<g id="edge19" class="edge">
<title>21&#45;&#45;18</title>
<path fill="none" stroke="black" d="M1670.16,-276.28C1656.46,-287.15 1636.44,-303.02 1620.74,-315.48"/>
<polygon fill="black" stroke="black" points="1618.18,-313.04 1612.52,-322 1622.53,-318.53 1618.18,-313.04"/>
<text text-anchor="middle" x="1639.27" y="-307.89" font-family="Times New Roman,serif" font-size="14.00">D</text>
</g>
<!-- 45&#45;&#45;14 -->
<g id="edge22" class="edge">
<title>45&#45;&#45;14</title>
<path fill="none" stroke="black" d="M1189.63,-334.69C1195.92,-334.69 1206.13,-334.69 1216.14,-334.69"/>
<polygon fill="black" stroke="black" points="1216.33,-338.19 1226.33,-334.69 1216.33,-331.19 1216.33,-338.19"/>
</g>
<!-- 28 -->
<g id="node22" class="node">
<title>28</title>
<ellipse fill="none" stroke="black" cx="732.75" cy="-331.69" rx="20.89" ry="20.89"/>
<text text-anchor="middle" x="732.75" y="-327.49" font-family="Times New Roman,serif" font-size="14.00">28</text>
</g>
<!-- 28&#45;&#45;45 -->
<g id="edge21" class="edge">
<title>28&#45;&#45;45</title>
<path fill="none" stroke="black" d="M753.13,-327.46C765.46,-325.12 781.81,-322.69 796.44,-322.69 796.44,-322.69 796.44,-322.69 1118.69,-322.69 1139.97,-322.69 1164.6,-329.44 1175.58,-332.82"/>
</g>
<!-- 28&#45;&#45;46 -->
<g id="edge26" class="edge">
<title>28&#45;&#45;46</title>
<path fill="none" stroke="black" d="M750.54,-342.88C757.73,-348.11 765.95,-354.73 772.44,-361.69 781.34,-371.26 789.23,-384.45 793.37,-391.92"/>
</g>
<!-- 49 -->
<g id="node37" class="node">
<title>49</title>
<ellipse fill="none" stroke="white" cx="797.44" cy="-430.69" rx="7" ry="7"/>
<text text-anchor="middle" x="797.44" y="-426.49" font-family="Times New Roman,serif" font-size="14.00">E</text>
</g>
<!-- 28&#45;&#45;49 -->
<g id="edge45" class="edge">
<title>28&#45;&#45;49</title>
<path fill="none" stroke="black" d="M744.67,-348.94C759.12,-371.76 783.84,-410.79 792.94,-425.17"/>
</g>
<!-- 22&#45;&#45;11 -->
<g id="edge24" class="edge">
<title>22&#45;&#45;11</title>
<path fill="none" stroke="black" d="M1097.25,-435.88C1091.42,-434.65 1084.98,-433.51 1079,-432.89 1073.32,-432.31 1067.24,-432.17 1061.39,-432.28"/>
<polygon fill="black" stroke="black" points="1061.09,-428.79 1051.24,-432.7 1061.37,-435.78 1061.09,-428.79"/>
<text text-anchor="middle" x="1073.94" y="-436.89" font-family="Times New Roman,serif" font-size="14.00">D</text>
</g>
<!-- 46&#45;&#45;9 -->
<g id="edge27" class="edge">
<title>46&#45;&#45;9</title>
<path fill="none" stroke="black" d="M803.98,-400.74C810.87,-404.53 823.08,-411.25 834.2,-417.36"/>
<polygon fill="black" stroke="black" points="832.69,-420.53 843.14,-422.28 836.07,-414.39 832.69,-420.53"/>
</g>
<!-- 24 -->
<g id="node26" class="node">
<title>24</title>
<ellipse fill="none" stroke="black" cx="471.8" cy="-20.69" rx="20.89" ry="20.89"/>
<text text-anchor="middle" x="471.8" y="-16.49" font-family="Times New Roman,serif" font-size="14.00">24</text>
</g>
<!-- 23&#45;&#45;24 -->
<g id="edge29" class="edge">
<title>23&#45;&#45;24</title>
<path fill="none" stroke="black" d="M399.8,-80.94C406.73,-74.46 415.2,-66.68 422.99,-59.89 430.72,-53.17 439.34,-46.01 447.1,-39.67"/>
<polygon fill="black" stroke="black" points="449.54,-42.19 455.11,-33.18 445.13,-36.76 449.54,-42.19"/>
<text text-anchor="middle" x="428.05" y="-64.89" font-family="Times New Roman,serif" font-size="14.00">D</text>
</g>
<!-- 25 -->
<g id="node27" class="node">
<title>25</title>
<ellipse fill="none" stroke="black" cx="471.8" cy="-240.69" rx="20.89" ry="20.89"/>
<text text-anchor="middle" x="471.8" y="-236.49" font-family="Times New Roman,serif" font-size="14.00">25</text>
</g>
<!-- 23&#45;&#45;25 -->
<g id="edge31" class="edge">
<title>23&#45;&#45;25</title>
<path fill="none" stroke="black" d="M398.5,-110.11C408.72,-122.51 422.82,-140.64 433.1,-157.89 443.42,-175.2 452.81,-195.81 459.64,-212.14"/>
<polygon fill="black" stroke="black" points="456.52,-213.76 463.54,-221.69 463,-211.1 456.52,-213.76"/>
<text text-anchor="middle" x="428.05" y="-162.89" font-family="Times New Roman,serif" font-size="14.00">A</text>
</g>
<!-- 29 -->
<g id="node30" class="node">
<title>29</title>
<ellipse fill="none" stroke="black" cx="471.8" cy="-120.69" rx="20.89" ry="20.89"/>
<text text-anchor="middle" x="471.8" y="-116.49" font-family="Times New Roman,serif" font-size="14.00">29</text>
</g>
<!-- 23&#45;&#45;29 -->
<g id="edge35" class="edge">
<title>23&#45;&#45;29</title>
<path fill="none" stroke="black" d="M402.5,-84.69C411.77,-80.62 423.29,-77.75 433.1,-81.89 440.36,-84.96 446.91,-90.18 452.43,-95.82"/>
<polygon fill="black" stroke="black" points="450.06,-98.42 459.3,-103.6 455.31,-93.78 450.06,-98.42"/>
<text text-anchor="middle" x="428.05" y="-86.89" font-family="Times New Roman,serif" font-size="14.00">G</text>
</g>
<!-- 24&#45;&#45;23 -->
<g id="edge30" class="edge">
<title>24&#45;&#45;23</title>
<path fill="none" stroke="black" d="M450.71,-21.85C441.55,-23.22 430.98,-26.07 422.99,-31.89 411.32,-40.41 402.58,-53.74 396.48,-65.93"/>
<polygon fill="black" stroke="black" points="393.14,-64.8 392.14,-75.35 399.5,-67.73 393.14,-64.8"/>
<text text-anchor="middle" x="428.05" y="-36.89" font-family="Times New Roman,serif" font-size="14.00">G</text>
</g>
<!-- 26 -->
<g id="node28" class="node">
<title>26</title>
<ellipse fill="none" stroke="black" cx="558.52" cy="-293.69" rx="20.89" ry="20.89"/>
<text text-anchor="middle" x="558.52" y="-289.49" font-family="Times New Roman,serif" font-size="14.00">26</text>
</g>
<!-- 25&#45;&#45;26 -->
<g id="edge32" class="edge">
<title>25&#45;&#45;26</title>
<path fill="none" stroke="black" d="M489.94,-251.42C502.08,-259.01 518.56,-269.32 532.21,-277.86"/>
<polygon fill="black" stroke="black" points="530.36,-280.83 540.69,-283.16 534.07,-274.89 530.36,-280.83"/>
<text text-anchor="middle" x="515.16" y="-273.89" font-family="Times New Roman,serif" font-size="14.00">B</text>
</g>
<!-- 27 -->
<g id="node29" class="node">
<title>27</title>
<ellipse fill="none" stroke="black" cx="645.25" cy="-323.69" rx="20.89" ry="20.89"/>
<text text-anchor="middle" x="645.25" y="-319.49" font-family="Times New Roman,serif" font-size="14.00">27</text>
</g>
<!-- 26&#45;&#45;27 -->
<g id="edge33" class="edge">
<title>26&#45;&#45;27</title>
<path fill="none" stroke="black" d="M578.33,-300.35C589.41,-304.27 603.64,-309.31 616.04,-313.7"/>
<polygon fill="black" stroke="black" points="614.9,-317.02 625.5,-317.05 617.24,-310.42 614.9,-317.02"/>
<text text-anchor="middle" x="601.89" y="-313.89" font-family="Times New Roman,serif" font-size="14.00">C</text>
</g>
<!-- 27&#45;&#45;28 -->
<g id="edge34" class="edge">
<title>27&#45;&#45;28</title>
<path fill="none" stroke="black" d="M666.08,-325.55C676.76,-326.55 690.15,-327.8 702.06,-328.92"/>
<polygon fill="black" stroke="black" points="701.74,-332.4 712.02,-329.85 702.39,-325.43 701.74,-332.4"/>
<text text-anchor="middle" x="689" y="-332.89" font-family="Times New Roman,serif" font-size="14.00">D</text>
</g>
<!-- 29&#45;&#45;23 -->
<g id="edge36" class="edge">
<title>29&#45;&#45;23</title>
<path fill="none" stroke="black" d="M451.88,-114.94C440.82,-111.58 426.63,-107.26 414.2,-103.48"/>
<polygon fill="black" stroke="black" points="414.86,-100.02 404.28,-100.46 412.82,-106.72 414.86,-100.02"/>
<text text-anchor="middle" x="428.05" y="-112.89" font-family="Times New Roman,serif" font-size="14.00">D</text>
</g>
<!-- 47 -->
<!-- 34 -->
<g id="node32" class="node">
<title>34</title>
<ellipse fill="none" stroke="black" cx="115.36" cy="-120.69" rx="20.89" ry="20.89"/>
<text text-anchor="middle" x="115.36" y="-116.49" font-family="Times New Roman,serif" font-size="14.00">34</text>
</g>
<!-- 47&#45;&#45;34 -->
<g id="edge37" class="edge">
<title>47&#45;&#45;34</title>
<path fill="none" stroke="darkgreen" stroke-width="4" d="M54.38,-120.69C63.85,-120.69 74.6,-120.69 84.35,-120.69"/>
<polygon fill="darkgreen" stroke="darkgreen" stroke-width="4" points="84.44,-124.19 94.44,-120.69 84.44,-117.19 84.44,-124.19"/>
<text text-anchor="middle" x="74.33" y="-124.89" font-family="Times New Roman,serif" font-size="14.00">I</text>
</g>
<!-- 34&#45;&#45;1 -->
<g id="edge38" class="edge">
<title>34&#45;&#45;1</title>
<path fill="none" stroke="black" d="M136.4,-120.69C147.1,-120.69 160.42,-120.69 172.04,-120.69"/>
<polygon fill="black" stroke="black" points="172.1,-124.19 182.1,-120.69 172.1,-117.19 172.1,-124.19"/>
<text text-anchor="middle" x="159.1" y="-124.89" font-family="Times New Roman,serif" font-size="14.00">D</text>
</g>
<!-- 48 -->
<!-- 36 -->
<g id="node34" class="node">
<title>36</title>
<ellipse fill="none" stroke="black" cx="384.3" cy="-167.69" rx="20.89" ry="20.89"/>
<text text-anchor="middle" x="384.3" y="-163.49" font-family="Times New Roman,serif" font-size="14.00">36</text>
</g>
<!-- 48&#45;&#45;36 -->
<g id="edge39" class="edge">
<title>48&#45;&#45;36</title>
<path fill="none" stroke="darkgreen" stroke-width="4" d="M318.6,-167.69C329.42,-167.69 342.02,-167.69 353.2,-167.69"/>
<polygon fill="darkgreen" stroke="darkgreen" stroke-width="4" points="353.39,-171.19 363.39,-167.69 353.39,-164.19 353.39,-171.19"/>
<text text-anchor="middle" x="340.94" y="-171.89" font-family="Times New Roman,serif" font-size="14.00">I</text>
</g>
<!-- 36&#45;&#45;29 -->
<g id="edge40" class="edge">
<title>36&#45;&#45;29</title>
<path fill="none" stroke="black" d="M402.92,-177.47C412.32,-181.31 423.82,-183.73 433.1,-178.69 444.81,-172.34 453.45,-160.6 459.48,-149.34"/>
<polygon fill="black" stroke="black" points="462.74,-150.64 463.95,-140.12 456.44,-147.59 462.74,-150.64"/>
<text text-anchor="middle" x="428.05" y="-185.89" font-family="Times New Roman,serif" font-size="14.00">G</text>
</g>
<!-- 37&#45;&#45;4 -->
<g id="edge42" class="edge">
<title>37&#45;&#45;4</title>
<path fill="none" stroke="black" d="M405.13,-335.21C416.69,-333.19 431.43,-330.6 444.01,-328.39"/>
<polygon fill="black" stroke="black" points="444.71,-331.82 453.96,-326.65 443.5,-324.93 444.71,-331.82"/>
<text text-anchor="middle" x="428.05" y="-335.89" font-family="Times New Roman,serif" font-size="14.00">D</text>
</g>
<!-- 38&#45;&#45;5 -->
<g id="edge44" class="edge">
<title>38&#45;&#45;5</title>
<path fill="none" stroke="black" d="M405.13,-397.69C416.5,-397.69 430.94,-397.69 443.38,-397.69"/>
<polygon fill="black" stroke="black" points="443.68,-401.19 453.68,-397.69 443.68,-394.19 443.68,-401.19"/>
<text text-anchor="middle" x="428.05" y="-401.89" font-family="Times New Roman,serif" font-size="14.00">A</text>
</g>
<!-- 49&#45;&#45;9 -->
<g id="edge47" class="edge">
<title>49&#45;&#45;9</title>
<path fill="none" stroke="black" d="M804.86,-430.69C811.21,-430.69 821.37,-430.69 831.14,-430.69"/>
<polygon fill="black" stroke="black" points="831.39,-434.19 841.39,-430.69 831.39,-427.19 831.39,-434.19"/>
</g>
<!-- 39 -->
<g id="node38" class="node">
<title>39</title>
<ellipse fill="none" stroke="black" cx="732.75" cy="-454.69" rx="20.89" ry="20.89"/>
<text text-anchor="middle" x="732.75" y="-450.49" font-family="Times New Roman,serif" font-size="14.00">39</text>
</g>
<!-- 39&#45;&#45;49 -->
<g id="edge46" class="edge">
<title>39&#45;&#45;49</title>
<path fill="none" stroke="black" d="M752.22,-447.62C765.22,-442.64 781.8,-436.3 790.5,-432.97"/>
</g>
<!-- 40 -->
<g id="node39" class="node">
<title>40</title>
<ellipse fill="none" stroke="black" cx="645.25" cy="-454.69" rx="20.89" ry="20.89"/>
<text text-anchor="middle" x="645.25" y="-450.49" font-family="Times New Roman,serif" font-size="14.00">40</text>
</g>
<!-- 40&#45;&#45;39 -->
<g id="edge48" class="edge">
<title>40&#45;&#45;39</title>
<path fill="none" stroke="black" d="M666.08,-454.69C676.65,-454.69 689.88,-454.69 701.69,-454.69"/>
<polygon fill="black" stroke="black" points="702.02,-458.19 712.02,-454.69 702.02,-451.19 702.02,-458.19"/>
<text text-anchor="middle" x="689" y="-458.89" font-family="Times New Roman,serif" font-size="14.00">D</text>
</g>
<!-- 41 -->
<g id="node40" class="node">
<title>41</title>
<ellipse fill="none" stroke="black" cx="558.52" cy="-454.69" rx="20.89" ry="20.89"/>
<text text-anchor="middle" x="558.52" y="-450.49" font-family="Times New Roman,serif" font-size="14.00">41</text>
</g>
<!-- 41&#45;&#45;40 -->
<g id="edge49" class="edge">
<title>41&#45;&#45;40</title>
<path fill="none" stroke="black" d="M579.6,-454.69C589.94,-454.69 602.76,-454.69 614.25,-454.69"/>
<polygon fill="black" stroke="black" points="614.31,-458.19 624.31,-454.69 614.31,-451.19 614.31,-458.19"/>
<text text-anchor="middle" x="601.89" y="-458.89" font-family="Times New Roman,serif" font-size="14.00">C</text>
</g>
<!-- 42 -->
<g id="node41" class="node">
<title>42</title>
<ellipse fill="none" stroke="black" cx="471.8" cy="-454.69" rx="20.89" ry="20.89"/>
<text text-anchor="middle" x="471.8" y="-450.49" font-family="Times New Roman,serif" font-size="14.00">42</text>
</g>
<!-- 42&#45;&#45;41 -->
<g id="edge50" class="edge">
<title>42&#45;&#45;41</title>
<path fill="none" stroke="black" d="M492.88,-454.69C503.22,-454.69 516.03,-454.69 527.52,-454.69"/>
<polygon fill="black" stroke="black" points="527.59,-458.19 537.59,-454.69 527.59,-451.19 527.59,-458.19"/>
<text text-anchor="middle" x="515.16" y="-458.89" font-family="Times New Roman,serif" font-size="14.00">B</text>
</g>
<!-- 50 -->
<!-- 43 -->
<g id="node43" class="node">
<title>43</title>
<ellipse fill="none" stroke="black" cx="384.3" cy="-226.69" rx="20.89" ry="20.89"/>
<text text-anchor="middle" x="384.3" y="-222.49" font-family="Times New Roman,serif" font-size="14.00">43</text>
</g>
<!-- 50&#45;&#45;43 -->
<g id="edge51" class="edge">
<title>50&#45;&#45;43</title>
<path fill="none" stroke="darkgreen" stroke-width="4" d="M318.6,-226.69C329.42,-226.69 342.02,-226.69 353.2,-226.69"/>
<polygon fill="darkgreen" stroke="darkgreen" stroke-width="4" points="353.39,-230.19 363.39,-226.69 353.39,-223.19 353.39,-230.19"/>
<text text-anchor="middle" x="340.94" y="-230.89" font-family="Times New Roman,serif" font-size="14.00">I</text>
</g>
<!-- 43&#45;&#45;25 -->
<g id="edge52" class="edge">
<title>43&#45;&#45;25</title>
<path fill="none" stroke="black" d="M405.13,-229.94C415.81,-231.69 429.21,-233.88 441.11,-235.83"/>
<polygon fill="black" stroke="black" points="440.64,-239.3 451.08,-237.46 441.77,-232.39 440.64,-239.3"/>
<text text-anchor="middle" x="428.05" y="-238.89" font-family="Times New Roman,serif" font-size="14.00">A</text>
</g>
<!-- 51 -->
<!-- 44 -->
<g id="node45" class="node">
<title>44</title>
<ellipse fill="none" stroke="black" cx="384.3" cy="-456.69" rx="20.89" ry="20.89"/>
<text text-anchor="middle" x="384.3" y="-452.49" font-family="Times New Roman,serif" font-size="14.00">44</text>
</g>
<!-- 51&#45;&#45;44 -->
<g id="edge53" class="edge">
<title>51&#45;&#45;44</title>
<path fill="none" stroke="darkgreen" stroke-width="4" d="M318.6,-456.69C329.42,-456.69 342.02,-456.69 353.2,-456.69"/>
<polygon fill="darkgreen" stroke="darkgreen" stroke-width="4" points="353.39,-460.19 363.39,-456.69 353.39,-453.19 353.39,-460.19"/>
<text text-anchor="middle" x="340.94" y="-460.89" font-family="Times New Roman,serif" font-size="14.00">I</text>
</g>
<!-- 44&#45;&#45;42 -->
<g id="edge54" class="edge">
<title>44&#45;&#45;42</title>
<path fill="none" stroke="black" d="M405.13,-456.23C415.71,-455.98 428.94,-455.67 440.75,-455.4"/>
<polygon fill="black" stroke="black" points="441.16,-458.89 451.08,-455.15 441,-451.89 441.16,-458.89"/>
<text text-anchor="middle" x="428.05" y="-459.89" font-family="Times New Roman,serif" font-size="14.00">A</text>
</g>
</g>
</svg>
